<?xml version="1.0" encoding="UTF-8"?>
<svg id="Capa_2" data-name="Capa 2" xmlns="http://www.w3.org/2000/svg" xmlns:xlink="http://www.w3.org/1999/xlink" viewBox="0 0 852 421">
  <defs>
    <style>
      .cls-1 {
        fill: none;
      }

      .cls-2 {
        clip-path: url(#clippath);
      }

      .cls-3 {
        fill: #003b4f;
      }

      .cls-4 {
        fill: #006e78;
      }

      .cls-5 {
        fill: #fff;
      }

      .cls-6 {
        fill: #1b212d;
      }

      .cls-7 {
        fill: #562745;
      }
    </style>
    <clipPath id="clippath">
      <rect class="cls-1" width="852" height="421"/>
    </clipPath>
  </defs>
  <g id="Capa_1-2" data-name="Capa 1">
    <g class="cls-2">
      <g>
        <path class="cls-3" d="M797.03,106.94l-7.03,.73,1.65-4.1-.3-.27c-.45,.35-.86,.75-1.22,1.19-.47,.87-1.27,1.52-2.21,1.82-.94,.3-1.97,.22-2.85-.22-.89-.31-1.95-.21-2.86-.54-.9-.21-1.71-.68-2.32-1.37-.32-.58-.77-1.09-1.31-1.48-.54-.39-1.16-.66-1.82-.78-.66-.12-1.33-.1-1.98,.06s-1.25,.47-1.76,.89c-2.46,2.04-4.68,4.36-6.61,6.92-.25,.48-.6,.89-1.02,1.23-.42,.33-.91,.58-1.43,.72-.52,.14-1.06,.17-1.6,.09-.53-.08-1.04-.27-1.5-.55-1.06-.6-2.17-1.1-3.32-1.49-1.01-.24-2.71-.39-3.14,.18-1.91,2.5-4.47,1.82-6.73,1.49-5.61-.67-10.51,.13-14.68,4.46-2.77,2.88-6.3,5.03-9.33,7.69-1.28,1.12-1.86,2.57,.07,3.97,.98,.87,2.12,1.54,3.35,1.97,1.24,.43,2.54,.61,3.85,.53,.49,.07,.95,.26,1.35,.55,.4,.29,.72,.68,.93,1.12,.5,1.43,.61,2.97,.31,4.46-.91,3.65,.43,7.68-1.96,11.11-.31,.46,.57,1.75,1.49,3.14-3.46,4.27-7.14,8.37-11.01,12.27-1.88,1.74-4.09,4.16-7.84,2.66-1.64-.67-3.96,.95-5.07,3.11-.55,1.16-1.36,2.18-2.37,2.98-1.73,1.25-1.89,2.6-.55,4,2.26,2.35,1.98,5.21,1.74,7.99,0,.4-.08,.8-.24,1.17-.16,.37-.39,.7-.68,.98s-.64,.49-1.01,.64c-.38,.14-.78,.21-1.18,.19-.97,.22-1.88,.61-2.71,1.16-.62,.28-1.49,.97-1.8,.77-.28-.21-.52-.48-.68-.79-.17-.31-.27-.65-.3-1-.15-1.4,0-2.83-.09-4.22-.09-.88-.4-2.37-.86-2.47-3.13-.73-3.45-2.97-3.29-6.34l-4.46,2.77c1.1,.88,2.16,1.7,3.23,2.53l-3.07,2.97c-.07,.06-.15,.11-.24,.15-4.23,2.51-4.14,2.45-1.79,6.74,1.35,2.49,2.49,5.08,3.42,7.75,1.13,3.3-.31,6.08-2.54,8.46-1.31,1.41-2.35,2.31,.28,3.73,1.13,.62,1.68,3.14,1.67,4.79s-1.22,2.85-1.91,4.28c-1.15,2.4-3.3,2.71-4.84,.57-.7-1.13-1.29-2.34-1.76-3.59l-17.86,7.87c0,2.66-.22,5.77-3.83,6.65-.65,.16-1.33,.17-1.98,.04-.65-.14-1.27-.42-1.8-.82-.35-.45-.61-.97-.74-1.53-.14-.56-.15-1.14-.04-1.7,.11-.56,.34-1.1,.67-1.57,.33-.47,.76-.86,1.26-1.15-2.35-1.13-3.63,.28-4.47,1.49-.47,.59-.7,1.33-.64,2.07,.05,.75,.39,1.45,.94,1.96,2.21,2.35,4.13,4.95,5.73,7.75,2.98,5.13,1.49,9.34-3.83,12.17-1.19,.67-2.25,1.53-3.14,2.56-2.04,2.34-3.88,2.35-5.95-.09-1.54-2.01-3.18-3.94-4.91-5.79-1-.64-2.1-1.1-3.26-1.35-.48,1.49-1.64,3.23-1.29,4.46,.42,1.62,1.18,3.13,2.24,4.43,1.05,1.3,2.38,2.36,3.88,3.1,3.2,1.69,4.24,5.95,2.98,10.26-.14,1.1-.14,2.21,0,3.3-6.03-2.66-7.13-8.55-9.39-13.56-.27,.18-.54,.36-.82,.52,.25,.71,.49,1.49,.79,2.31-2.17-.76-5.17-5-5.21-7.26-.09-3.46,.1-6.98-.24-10.41-.43-2.39-1.07-4.75-1.89-7.03-1.38,.7-1.99,1.07-2.65,1.34-2.37,1.01-4.94-.25-4.91-2.78,0-4.92-4.14-7.44-5.95-11.17-.09-.17-.24-.29-.42-.36-1-.45-7.84,2.16-8.47,3.06-.45,.78-1.1,1.43-1.89,1.87-1.83,.77-3.71,1.29-4.32,3.58-.12,.45-1.09,.61-1.56,1.01-2.38,1.95-4.79,3.88-7.05,5.95-.43,.39-.22,1.49-.37,2.16-.42,1.92-.89,3.84-1.27,5.77-.19,.63-.19,1.29,0,1.92,1.22,2.82,2.59,5.57,4.11,8.24,1.06,1.77,.77,2.77-.98,3.55l-3.99,1.82-3.42-6.68c-4.05,1.49-5.02,.91-6.88-3.44-1.98-4.64-4.47-9.09-6.52-13.67-.92-1.82-1.57-3.76-1.92-5.77-.58-4.24-3.81-6.04-6.77-8.19-.79-.61-1.47-1.35-2.01-2.19-2.64-3.99-5.36-7.64-10.97-7.3-3.93,.22-7.89,0-12.25,0,.58,1.06,.88,1.7,1.27,2.28,2.2,3.39,2.38,4.88-.12,8.03-1.99,2.5-3.39,5.31-6.61,7.18-2.68,1.49-5,3.41-8.16,3.94-.54,.07-.97,.76-1.49,1.18-.52,.42-1.01,1.21-1.67,1.49-3.59,1.49-7.23,2.81-10.81,4.33-1.43,.73-2.82,1.54-4.15,2.44l.36,.85c3.62-.52,7.25-1.01,10.87-1.49,3.62-.48,5.07,1,3.91,4.3-1.37,3.35-3.01,6.57-4.9,9.65-1.37,2.51-2.86,4.95-4.35,7.44-.32,.66-.79,1.24-1.38,1.68-5.99,3.72-11.16,8.63-15.18,14.41-1.62,2.2-2.01,5.95-1.77,8.81,.48,5.88,1.9,11.65,2.68,17.49,.39,2.97-2.98,6.45-5.74,7.44-1.85,.71-3.29,2.48-4.9,3.79-1.04,.79-1.79,1.9-2.13,3.16-.34,1.26-.24,2.6,.27,3.8,1.15,3.61-.48,6.96-2.35,10.02-.31,.52-1.32,.6-1.89,1.01-.68,.45-1.26,1.04-1.7,1.74-.71,1.35-1.04,2.98-1.82,4.21-2.07,3.45-3.82,7.26-6.56,10.05-3.71,3.84-8.72,6.18-14.05,6.57-2.5,.2-4.99,.55-7.44,1.07-4.87,1.04-7.96-1.26-8.83-6.13-.58-2.92-1.55-5.74-2.89-8.4-2.63-4.86-4.37-10.14-5.15-15.6-.48-2.66-1.59-5.17-3.25-7.32-3.9-5.64-2.98-11.62-1.86-17.68,.03-.29,.14-.56,.33-.77,5.6-4.28,.92-9.37,.76-13.95-.09-2.48-2.77-4.91-4.38-7.29-1.55-1.87-2.95-3.86-4.2-5.95-.33-.75-.5-1.57-.5-2.39s.17-1.63,.5-2.39c1.83-3.26,.24-5.82-1.19-8.37-.27-.49-2.13-.54-2.98-.15-.33,.24-.71,.39-1.11,.46-.4,.06-.81,.03-1.19-.1-.38-.13-.73-.35-1.02-.64-.28-.29-.49-.64-.61-1.03-1.96-4.31-6.22-3.72-9.11-2.65-4.09,1.49-7.89,4.06-12.71,2.89-1.62-.4-3.53,.3-5.3,.49-3.36,.36-6.67,.88-9.14-2.53-.79-1.09-2.56-1.49-3.84-2.2-.68-.42-4.46-5.95-5.17-6.72-1.23-1.42-2.57-2.72-4.02-3.91-1.37-1.01-2.52-2.29-3.36-3.77-.85-1.48-1.38-3.11-1.56-4.8-.1-1.29,.1-2.59,.6-3.79,.95-1.95,1.47-4.08,1.51-6.24,.04-2.17-.4-4.32-1.29-6.29-.43-1.39-.33-2.89,.28-4.21,1.34-2.93,2.83-5.8,4.47-8.58,.92-1.4,1.92-2.76,2.98-4.06-2.81,0-5.08,.11-7.32-.07-.8,0-1.49-.85-2.35-1.31,.59-1.03,1.24-2.03,1.95-2.98,.24-.15,.51-.24,.8-.26,.28-.02,.57,.03,.83,.15,2.5,1.49,4.75,.19,6.88,0,1.1,.37,2.35,1.31,3.26,1.04,1.15-.23,2.19-.82,2.98-1.69,.79-.86,1.28-1.96,1.41-3.12,.09-4.76,2.69-7.44,6.33-9.94,1.06-1.04,1.72-2.42,1.88-3.9,0-.33-1.86-1.09-2.9-1.58-.31-.16-.76,0-1.1-.15-1.67-.54-4.23-7.36-2.98-8.64,1.73-1.87,1.56-3.87,1.25-6.05-.71-5.22,1-7.11,6.37-7.02,2.98,0,5.82,.27,8.74,.45,1.65,.1,2.34-.67,2.54-2.28,.16-1.55-.23-3.1-1.09-4.39-.86-1.29-2.15-2.25-3.64-2.7-1.21-.4-2.05-1.85-3.07-2.81,1-1.09,2.09-2.09,3.27-2.97,.88-.28,1.8-.4,2.72-.34v-.79c-1.29-.15-2.6-.21-3.87-.45-1.27-.24-2.98-.3-3.44-1.07-.46-.77,.48-2.26,.79-3.45,.07-.49,.12-.99,.13-1.49-2.2,.32-4.38,.82-6.5,1.49-1.98,.77-3.86,1.38-5.49-.22-.36-.31-.65-.69-.86-1.12-.21-.43-.33-.89-.35-1.37-.02-.47,.05-.95,.21-1.39,.16-.44,.42-.85,.75-1.2,.27-.34-.13-1.35-.43-1.95-.85-1.75-.74-2.97,1.37-3.69,1.29-.68,2.46-1.54,3.5-2.56,.55-.45,.94-1.34,1.49-1.49,2.98-.7,2.41-2.1,1.1-4.02-.35-.47-.59-1.01-.69-1.58-.11-.57-.09-1.16,.07-1.73,.15-.56,.43-1.08,.82-1.52,.38-.44,.86-.79,1.4-1.01,2.86-1.2,5.81-2.2,8.81-2.97,2.16-.55,3.2,1.59,2.1,4.37,2.81,.46,2.98,2.45,3.33,4.83,.42,2.6,2.26,4.94,2.98,7.53,1.01,3.73,5.52,3.69,6.98,7.33,2.53-3.84,5.72-6.29,10.32-6.13-1.64-7.23,.28-10.41,7.07-11.6,.06,1.27,.22,2.53,.48,3.78,.1,.38,.29,.74,.55,1.04,.26,.3,.58,.54,.94,.7,.4,.01,.79-.07,1.14-.25,.36-.17,.66-.43,.9-.75,.3-.51,0-1.49-.28-2.19-.6-1.49-1.34-2.89-2.01-4.33-1.28-2.72-2.25-2.81-4.76-1.12-1.74,.97-3.57,1.77-5.46,2.38-.46,.25-.98,.38-1.51,.39-.53,0-1.05-.11-1.52-.34-.47-.23-.88-.57-1.2-1-.32-.42-.52-.91-.61-1.43-.74-3.93-1.2-7.9-1.38-11.9,0-.56,.7-1.31,1.25-1.77,2.23-1.83,4.3-4.22,6.89-5.16,2.14-.81,4.14-1.93,5.95-3.33,3.26-2.39,5.7-6.19,5.18-9.39-.64-3.85,.91-5.25,3.21-6.99,1.03-.77,2.13-1.49,3.23-2.14,2.35-1.43,4.73-2.84,7.13-4.24,.98-.57,2.05-1.49,2.98-1.49,1.87-.15,3.73-.46,5.55-.92,4.47-.51,8.45-3.87,13.26-2.62,3.05,.8,6.13,1.49,9.18,2.32,.17,.07,.32,.18,.44,.32,.12,.14,.21,.3,.26,.48,.36,1.96,1.79,1.93,3.38,2.45,4.61,1.49,9.02,3.5,13.53,5.29,.51,.21,1.07,.27,1.59,.48,2.55,1.03,5.3,1.7,6.07,5.04,.28,1.22,.75,3.06,3.35,2.48-.54-2.04-.89-4.02-1.58-5.86-.49-1.32-1.21-2.5,.55-3.29,1.76-.79,3.32-1.49,4.73,.52,.4,.57,1.12,1.32,1.62,1.29,2.55-.16,4.09,.74,4.2,3.66l.8-.25c-.1-1.12-.1-2.24,0-3.36,.22-1.22,.7-3.38,1.22-3.42,2.35-.1,4.71,.07,7.03,.49,.06,.91,.06,1.82,0,2.72,1.01-.3,2.01-.66,2.98-1.09,1.79-.88,3.44-1.56,4.99,.43,.17,.15,.36,.26,.58,.32,.21,.06,.44,.07,.66,.04,2.78-.76,5.52-1.61,7.93-2.34,.12-1.43,.49-2.83,1.1-4.13,.28-.4,2.37,.48,3.63,.68,.99,.15,1.98,.21,2.98,.18,2.98-.1,5.82-.45,8.31,2.22,1.31,1.41,3.78,1.74,5.73,2.54l.46-1.2-2.46-1.03c-.43-2.05-.62-4.14-.57-6.23,.16-1.23,1.49-2.35,2.38-3.48,.89-1.13,1.89-2.19,2.66-3.39,.49-1.19,1.07-2.33,1.73-3.44,3.16-3.69,4.47-3.66,7.08,.45,1.03,1.95,1.91,3.98,2.62,6.07,1.31-.95,4.2-.86,3.19-4.46l.73-.13c.73,.65,1.49,1.37,2.2,1.98,.72,.61,1.49,1.38,2.11,1.32,2.98-.27,5.88-.8,9.02-1.26,.04-.27,0-.55-.09-.8-1.28-3.58-1.15-3.33,2.28-5.4,2.15-1.29,4.61-1.96,7.11-1.92,.66-3.93,3.23-5.95,7.28-6.65,4.05-.7,8.1-1.92,12.19-2.68,2.56-.58,5.19-.81,7.82-.7,4.2,.33,7.55-1.83,10.27-4.13,2.32-1.98,4.87-1.81,7.25-2.71,1.48-.27,2.99-.27,4.47,0,.55,0,1.49,.12,1.56,.42,1.49,3.84,4.93,2.62,7.68,3.23,2.93,.5,5.82,1.22,8.65,2.14,3.9,1.49,4.46,4.94,1.49,8.2,.22,.39,.73,.86,.7,1.29-.27,3.67,2.35,3.26,4.61,3.32,1.69-.13,3.39-.13,5.08,0,1.31,.47,2.57,1.08,3.77,1.8,1.46,.71,2.99,1.27,4.57,1.65,.39,.16,.81,.22,1.23,.2,.42-.03,.83-.15,1.2-.36,.37-.21,.68-.49,.92-.84,.24-.35,.4-.74,.46-1.16,.28-.89,2.89-1.49,4.46-1.49,2.53,.17,5.05,.48,7.55,.94,.55,0,1.09,.11,1.59,.33,.5,.21,.96,.52,1.34,.91,.38,.39,.68,.85,.88,1.36,.2,.51,.3,1.05,.28,1.59,0,1.5,.17,3,.52,4.46,.27,.89,1.18,2.08,1.93,2.2,.49-.07,.96-.26,1.36-.56,.4-.3,.72-.69,.93-1.14,.64-1.83,1.49-1.64,3.14-1.49,4.25,.44,8.52,.66,12.8,.67,.23-.04,.44-.13,.62-.26,.18-.14,.33-.32,.42-.52,.82-3.11,3.53-2.97,5.7-2.97,4.7,0,9.41,.39,14.1,.7,1.54-.02,3.07,.27,4.49,.86,1.42,.59,2.72,1.45,3.8,2.55,1.2,1.32,2.74,2.28,4.46,2.75,1.72,.47,3.54,.45,5.24-.07,3.68-.85,7.83,0,11.68,.6,4.01,.73,7.93,1.9,11.68,3.5l-4.18,.39v.61l11.91-.68c1.03,0,2.05-.13,3.07-.15,.37,0,.88,.36,1.09,.21,5-3.3,9.9,1.31,14.88,.19,1.76-.4,3.58-.35,5.31,.15,1.61,.51,2.89,1.98,4.47,2.86,2.98,1.7,5.95,3.21,8.86,4.91,1.4,.83,2.6,2.02,4.02,2.83,1,.6,2.14,.93,3.3,.97,1.27-.07,2.53,.13,3.72,.57,1.19,.45,2.27,1.13,3.18,2.01,2.2,2.17,1.71,3.84-1.19,5.1-.92,.42-1.7,1.11-2.2,1.99-1.29,2.44-3.87,2.89-6.46,1.83-2.96-1.2-6.08-1.96-9.26-2.26-.86-.09-2.34,1.87-2.81,3.17-.58,1.49-.24,3.36-.55,5.03-.51,2.72-2.26,3.57-4.97,2.86-.44-.12-.89-.14-1.34-.07-.45,.07-.87,.24-1.25,.49-3.41,3.07-7.53,5.23-12,6.29-.68,.18-1.22,.95-1.91,1.08-1.32,.27-2.98,.77-3.99,.27-.77-.37-1.62-.53-2.47-.48-.85,.06-1.68,.33-2.39,.79-2.25,1.11-4.23,2.7-5.79,4.67-1.59,1.8-2.55,3.21-2.13,5.58,.42,2.36,.13,4.08-3.13,3.81,.64,2.97-.83,5.04-2.35,7.44-2.64,4.39-6.58,7.85-11.27,9.91-2.16,.97-3.8,3.11-5.75,4.77-.74-1.26-.96-2.76-.61-4.18,.36-1.42,1.26-2.64,2.51-3.4,.41-.35,.73-.78,.94-1.28,.21-.49,.3-1.03,.26-1.56-.42-3.24-1.38-6.41-1.74-9.65-.61-5.44,2.28-9.15,6.56-12.05,1.4-.94,2.66-2.07,4.14-3.23l.61,1.49,3.85-3.35,2.32,1.89c-2.72,1.49-2.54,3.45-1.58,5.95,.62,1.62,1.1,3.82-1.27,5.22-.61,.37-.46,1.98-.57,2.5,1.49-.85,2.84-1.94,3.99-3.21,.67-1.34,.8-2.88,.39-4.31-1.31-4.64,1.41-8.46,6.24-8.36,.74,0,1.49,.16,2.25,.16,1.49,0,1.86-.67,1.28-1.96,1.69-.19,3.4-.13,5.08,.19,2.98,1.09,4.66,.89,7.29-2.13-1.09,.51-2.2,.97-3.33,1.37-.89,.27-2.16,.76-2.74,.37-2.25-1.49-4.23-.98-6.28,.22m-363.45,67.9c.19-2.8-.18-4.7-3.2-5.25-1.12-.21-2.04-1.49-3.07-2.38-.73-.58-1.49-1.11-2.25-1.67,.17,2.39,.14,4.8-.09,7.18-.09,.53-.28,1.04-.58,1.49-.29,.45-.68,.84-1.13,1.13-.45,.29-.96,.49-1.49,.58-.53,.09-1.08,.06-1.6-.07-2.44-.51-2.46-2.32-2.16-4.16,.48-2.97,1.09-5.95,1.61-8.7-3.07,.37-5.78,.65-8.46,1.06-.45,0-.88,.64-1.19,1.07-.77,1.12-1.49,2.28-2.28,3.51,.18,.18,.37,.34,.58,.48,1.16,.64,2.34,1.25,3.51,1.87-1,1.13-1.92,2.34-2.98,3.38-.52,.54-1.24,.87-1.99,.91-4.08-.37-5.95,2.69-8.47,5.15,.94,.08,1.89,.01,2.81-.19,3.3-.6,6.59-1.24,9.9-1.78,1-.16,2.05,0,3.08-.15,3.32-.31,6.65-.86,9.99-.94,.47-.07,.95-.03,1.4,.11,.45,.14,.87,.38,1.22,.71,.35,.32,.62,.72,.79,1.16,.17,.44,.25,.92,.21,1.39,.29,2.58,.75,5.14,1.35,7.66,6.46-.82,10.52,5.95,17.22,5.46-.33-2.97,1.49-3.67,3.77-4.46,3.32-1.01,6.07,.45,9.01,1.35,4.58,1.41,9.02,3.93,14.05,1.49,.92-.23,1.88-.23,2.8,0,4.21,.39,5.85-.95,6.46-5.61-.97,.19-1.86,.34-2.74,.56-2.98,.77-3.83,.21-4.29-2.8-.07-.48-.88-1.29-1.13-1.22-3.56,1.01-7.74-.7-10.79,2.9-1.76,2.07-5.6,1.74-7.71-.24-1.94-1.83-3.77-3.78-5.46-5.85-1.31-1.5-2.4-3.18-3.23-4.98-.89-2.19-2.08-2.38-3.56-.97-1.5,1.38-2.8,2.97-3.87,4.71-1.99,3.45-3.41,4.06-6.85,2.35-.68-.34-1.49-.54-1.96-1.07-.82-.87-1.38-1.96-1.61-3.14,0-.55,1.49-1.28,2.38-1.75,.65-.19,1.33-.28,2.01-.27m8.39-59.49c.12,.19,.22,.4,.33,.61,.51-.1,1.09-.4,1.49-.27,.97,.37,1.92,.8,2.83,1.29-.62,1.13-1.31,2.22-2.07,3.26-.24,.3-1.09,0-1.64,.13-2.23,.27-5.27,3.82-5.02,5.58,2.41-.19,4.81-.55,7.2-.54,2.4,.01,3.21-.98,3.59-3.29,.57-3.44,1.64-6.8,2.47-10.07,1.12,.1,2.22,.56,2.75,.21,2.98-2.01,6.15-2.05,9.5-1.61,2.34,.31,3.48-.86,3.72-3.5-1.13,.02-2.26,.11-3.38,.27-2.13,.4-4.27,1.49-6.31,1.26-2.04-.22-5.3-1.07-5.95-2.59-1.13-2.36-.61-5.53-.7-8.37,0-.31,.64-.64,.95-.98,1.76-1.92,3.57-3.78,5.18-5.82,.45-.55,.24-1.61,.33-2.42-.92,.07-1.82,.28-2.68,.61-.59,.46-1.05,1.06-1.33,1.76-1.12,1.96-2.07,3.97-4.46,4.89-1.35,.63-2.59,1.48-3.66,2.51-2.08,1.83-2.98,5.95-1.76,7.72,2.81,4.17,2.81,4.46,0,8.12-.39,.44-.83,.85-1.29,1.22m31.88,39.96c-3.14,1.65-3.8,5.39-5.08,8.67-.1,.25,.86,1.34,1.3,1.31,1.92-.04,3.83-.3,5.7-.76,3.54-.97,6.79-1.89,10.42,.37,2.22,1.37,5.28,1.49,7.99,1.93,.48,.09,1.38-.61,1.61-1.16,.22-.55-.55-1.1-.98-1.58-.7-.76-1.49-1.37-2.2-2.14-1.06-1.51-2.63-2.59-4.42-3.04-1.79-.46-3.68-.26-5.34,.56-.89,.36-2.22,.74-2.89,.34-2.11-1.38-4.15-2.86-6.1-4.46m27.3,82.85l.7-.42c-.16-1.16,0-2.62-.55-3.41-2.9-3.79-3.16-9.43-8.14-11.76-.16-.1-.29-.24-.39-.4-.1-.16-.16-.34-.19-.52-.42-4.31-3.1-7.44-5.43-10.81-1.07-1.49-2.2-2.97-3.31-4.57l-.74,.48c.09,.61,0,1.34,.3,1.8,2.29,3.33,1.28,7.99,4.46,11.01,.49,.48,.25,1.65,.55,2.41,.85,2.11,1.73,4.21,2.71,6.25,.52,1.07,1.32,2.02,1.92,3.06,1.92,3.33,5.06,5.04,8.13,6.89m21.81-84.5l-.67-1.24c-2.01,.94-3.96,1.97-5.86,3.11-1.07,.59-1.88,1.55-2.26,2.71-.52,4,2.02,6.9,4.59,9.33,.35,.25,.66,.57,.89,.94,.23,.37,.39,.78,.46,1.21,.07,.43,.06,.87-.04,1.29-.1,.42-.28,.83-.53,1.18-2.1,4.09-1.7,5.22,2.77,6.29,.95,.22,2.6,.19,2.98-.36,.46-1.06,.54-2.25,.22-3.36-.4-2.26-.97-4.48-1.73-6.65-.7-1.63-1.53-3.19-2.5-4.67-.57-.97-1.22-1.87-1.88-2.78-1.59-2.22-1.31-3.91,1.25-5.19,.84-.52,1.62-1.13,2.32-1.81"/>
        <path class="cls-3" d="M195.29,72.23c-3.24-1.8-6.4-2.72-8.28-4.79-1.05-1.29-1.68-2.87-1.79-4.54-.11-1.66,.3-3.31,1.18-4.73,1.89-3.61,4.76-6.44,9.17-5.43,5.34,1.23,10.61-.07,15.91,.15,3.18,.15,6.21,1.43,8.53,3.61,2.98,2.51,5.83,5.46,10.33,5.56,1.76,0,3.48,1.2,5.54,1.26,2.84,3.24,5.7,6.48,8.69,9.86l-1.65,1.86c3.83,2.11,7.44,4.25,11.21,6.11,1.58,.79,2.65,2.97,1.28,4.22-2.68,2.38-5.63,4.46-8.31,6.51v12c-1.66-.16-3.31-.43-4.94-.8-4.02-1.25-8.07-2.48-11.91-4.09-1.48-.75-2.69-1.93-3.47-3.39-.37-.7-.95-1.26-1.66-1.6-.71-.35-1.51-.46-2.28-.33-2.35,.12-4.71,.02-7.04-.31-.98-.16-1.8-1.31-2.71-2.02,.73-.85,1.29-1.96,2.2-2.47,1.1-.72,2.42-1.06,3.74-.95,2.98,.65,4.26-1.22,5.64-3.12,.42-.49,.79-1.02,1.12-1.58,.4-.91,.67-1.87,1-2.83-1.13-.23-2.28-.31-3.42-.24-.85,.16-1.49,1.25-2.38,1.49-1.18,.4-2.47,.36-3.63-.1-.79-.58-.92-2.2-1.12-3.41-.08-.97-.08-1.94,0-2.9-1.9,.24-3.77,.67-5.58,1.28-.91,.4-2.11,2.04-1.92,2.78,.38,.95,.37,2.01-.03,2.95-.4,.94-1.15,1.69-2.1,2.08-3.22,1.96-3.29,2.97-.57,5.8,1.13,1.13,2.74,1.76,3.89,2.87,.55,.52,1.03,2.02,.71,2.38-2.04,2.42-4.25,4.7-6.61,6.83-.39,.29-.84,.47-1.31,.55-.47,.08-.96,.04-1.42-.1-.46-.15-.88-.4-1.22-.73s-.6-.75-.75-1.21c-.34-.89-1-1.62-1.86-2.04-2.34-.7-4.72-1.25-7.13-1.67-.81-.24-1.69-.2-2.48,.11-.79,.32-1.45,.89-1.87,1.63-.77,.81-1.68,1.48-2.68,1.98-3.17,2.23-6.16,4.61-6.21,8.92,0,.65,.36,1.83,.67,1.87,2.4,.37,3.1,1.89,3.69,4,.24,.85,1.93,1.74,2.98,1.8,2.74,.03,5.37,1.03,7.44,2.81,.57,.5,1.25,.87,1.98,1.07,3.02,.68,6,1.52,8.93,2.51,1.29,.52,2.17,2.22,3.11,3.47,.46,.64,.45,1.77,1,2.19,.35,.08,.71,.08,1.06,0s.68-.23,.96-.45c.35-1.64,.4-3.34,.15-5-.82-3.44,.13-4.76,3.68-4.33,1.01,.12,2.01,.45,4.02,.91-.72-1.49-1.56-2.9-2.53-4.24-2.23-2.45-2.31-3.58-.21-5.95,.53-.6,.84-1.35,.91-2.14,0-2.19-.15-4.37-.16-6.56-.01-2.19,.92-2.97,3.23-2.38,1.85,.43,3.9-.09,5.75,.36,1.81,.63,3.55,1.43,5.21,2.38,1.73,.79,3.45,1.49,5.18,2.31l3.62,1.59c.34,0,1.67-.61,1.89-.33,.54,.73,1.04,2.11,.68,2.69-.52,.88-1.82,1.28-2.98,2.02,.19,1.74,1.24,2.08,4.05,1.32,1.3-1.89,2.7-3.71,4.2-5.44,.3-.31,1.76,.07,2.37,.54,1.24,1.06,2.42,2.18,3.53,3.38,.13,.13,.43,.22,.43,.34-.1,3.24,3.1,5.31,3.51,7.76,.79,4.67,4.24,5.34,7.22,7.08,.86,.57,1.64,1.25,2.32,2.02,.39,.39,.52,1.24,.92,1.35,4.11,1.14,3.26,4.46,3.3,7.44v5.71c3.2-.19,4.91,1.04,5.95,4.08,2.71,7.44,2.64,7.61-5.31,7.26-2.07-.09-4.06,.18-5.7-1.67-.51-.58-2.05,0-2.98-.49-1.12-.55-2.53-1.38-2.86-2.39-.45-1.32-.71-3.09,1.36-4.03,1.01-.37,1.85-1.12,2.32-2.09,.47-.97,.55-2.09,.21-3.11-2.35,1.09-4.63,2.3-6.85,3.64-1.73,1.14-3.11,2.59-5.52,2.2-.6-.09-1.93,1.35-2.02,2.19-.09,.83,.55,2.8,1.27,2.97,1.55,.31,3.14,.31,4.69,0,2.02-.25,5.09,1.21,5.61,2.97,.1,.35,.12,.72,.05,1.08-.07,.36-.21,.7-.43,.99-2.81,2.04-5.28,4.74-9.08,5.04-.74,.02-1.45,.28-2.01,.76-.33,.47-.77,.86-1.27,1.14-.51,.28-1.07,.43-1.64,.46-.58,.02-1.15-.08-1.68-.32-.53-.23-.99-.58-1.36-1.03-1.74-1.49-3.25-1.09-4.91-.31-1.67,.77-3.17,1.73-2.8,4,.31,1.84-.46,2.6-2.34,3.38-5.39,2.25-10.84,7.2-10.42,14.56,0,1.25-1.49,2.9-2.65,3.85-2.98,2.29-6.21,4.1-9.02,6.49-1.34,1.15-3.35,2.88-1,5.13,.34,.34,.34,1.06,.52,1.58,1.49,4.46,1.49,4.28,5.95,4.46,.6,.1,1.17,.31,1.68,.63,.51,.32,.95,.74,1.3,1.24,1.49,2.24,2.82,4.59,3.97,7.02,.26,.97,.33,1.98,.22,2.98l-.73,.13c-1.26-1.87-2.53-3.76-4.11-6.08l-.62,3.84c-5.49-.82-10.51-2.42-14.14-6.93-.18-.22-.42-.49-.42-.73,0-5.31-4.29-6.05-8.01-7.44-1.86-.7-2.98-.68-4.15,1.34-.39,.58-.91,1.07-1.52,1.42-.61,.35-1.29,.56-1.99,.61-2.26,0-4.46-1.18-6.73-1.35-1.61-.03-3.2,.32-4.64,1.03-2.71,1.17-4.88,2.71-4.6,6.39,.16,2.22-1,4.46-1.24,6.75-.06,1.31,.16,2.62,.67,3.84,2.19,5.79,4.38,7.05,10.32,5.4,1.39-.39,2.37-2.32,3.47-3.61,.51-.6,.83-1.92,1.25-1.92,2.59-.12,5.18,.04,7.74,.48,1.61,.33,1.29,5.56-.13,7.44-.8,1.06-1.4,2.26-1.76,3.54-.62,2.22,.45,3.11,2.66,3.09,1.39-.08,2.78,.07,4.11,.46,2.26,.74,4.05,2.02,3.42,4.92-.23,1.2-.39,2.41-.48,3.63-.43,5.18,2.62,8.21,7.74,7.79h2.54c-1.93,3.38-2.62,3.51-7.68,1.59l1.38,1.95c-.86,0-1.64,.25-1.99,0-3.03-2.15-5.87-4.56-8.47-7.21-2.98-3.35-5.6-6.54-10.42-7-1.41-.13-2.74-.71-3.78-1.67-2.23-2.35-4.78-2.68-7.86-2.84-3.61-.29-7.16-1.12-10.52-2.48-3.54-1.34-6.8-3.46-10.23-5.13-1.17-.48-2.17-1.31-2.86-2.37-.69-1.06-1.04-2.31-1.01-3.58,0-4.46-3.31-6.69-5.95-9.32l-.7,.36c.26,.62,.4,1.29,.42,1.96-.19,1.01-.52,2.54-1.16,2.77-1.12,.17-2.25-.09-3.18-.73-1.28-.82-2.45-1.78-3.48-2.89-.69-.57-1.17-1.36-1.37-2.23-.1-2.05-1.29-2.98-2.98-3.69-1.06-.51-2.74-1.49-2.69-2.16,.25-3.99-3.1-6.2-4.24-9.46-.63-1.76-1.68-3.33-3.07-4.58-1.39-1.25-3.06-2.13-4.88-2.56-.66-.26-1.22-.72-1.61-1.31-2.86-4.06-5.66-8.17-8.45-12.27-.31-.45-.52-.95-.61-1.49-.66-3.31-1.1-6.66-1.31-10.02,0-3.18,1.12-6.41,.95-9.58-.15-2.57-.99-5.06-2.41-7.21-1.18-1.77-3.71-2.57-5.28-4.14-1.15-1.05-1.87-2.49-2.01-4.04,.12-.96-.07-1.93-.54-2.77-.48-.84-1.21-1.5-2.09-1.89-.37,1.03-.73,2.01-1.06,2.98-.83,.33-1.76,.33-2.6,.02-.84-.31-1.54-.92-1.95-1.72-1.05-1.21-2.22-2.33-3.47-3.33,0,.37,0,.1,0-.13,1.16-6.38,.61-6.37-4.67-9.49-.44-.17-.87-.38-1.27-.62-2.77-2.56-5.52-5.16-8.26-7.76-.21-.19-.37-.67-.49-.65-3.24,.52-4.88-2.66-7.61-3.27-1.55-.41-3.13-.69-4.72-.86-1.23,0-2.45,.17-3.63,.49-.91,.18-1.79,.83-2.63,.76-2.98-.31-5.14,1.38-7.44,2.68-.4,.29-.73,.65-.99,1.07s-.42,.88-.5,1.37c-.71,5.18-2.98,6.46-7.83,4.46-2.72-1.14-4.47,.88-6.33,2.56-1.49,1.45-3.09,2.79-4.76,4.02-.89,.44-1.85,.7-2.84,.77-.83,.03-1.66,.15-2.47,.36-3.69,1.64-7.29,3.5-11.04,5.03-1.2,.37-2.5,.28-3.65-.24-.28-.39-.46-.85-.52-1.33-.06-.48,0-.96,.19-1.41,1.18-1.13,2.53-2.08,4-2.8,1.16-.67,2.52-1.01,3.69-1.67,2.2-1.19,4.38-2.47,6.49-3.79,.7-.57,1.33-1.21,1.89-1.92l1.28,.98,3.69-2.14c-1.85-2.45-3.75-4.24-7.01-3.96-.51,0-1.18-1.76-2.02-3.11-4.03,.33-5.82-3.21-7.74-6.37-.35-.45-.61-.97-.74-1.53-.14-.56-.15-1.14-.05-1.7,.11-.56,.33-1.1,.66-1.57,.33-.47,.75-.86,1.25-1.16,2.98-2.28,2.74-3.88-.51-5.95-1.49-.95-2.98-1.98-4.35-3.06-1.37-1.09-1.49-3.78-.25-4.37,2.77-1.26,5.66-2.25,9.09-3.58-1-.65-1.86-1.25-2.75-1.81-.86-.44-1.7-.94-2.5-1.49-.85-.73-2.29-2.13-2.13-2.39,.88-1.44,2.02-2.7,3.35-3.73,1.91-1.45,3.94-2.74,6.07-3.85,1.38-.56,2.79-1.01,4.24-1.35,2.87-.95,5.72-1.93,8.57-2.97,.98-.52,2.04-.86,3.14-1.03,7.13,.36,14.27,.71,21.37,1.38,3.69,.34,7.32,1.34,10.98,2.04,.19,0,.49,0,.54,.1,1.95,3.63,5.51,2.25,8.47,2.78,.7,.26,1.37,.62,1.98,1.06,3.2-1.87,6.64-1.49,7.25,.71l6.06-1.93-1.35-1.22c.76-.15,1.49-.51,1.77-.28,1.65,1.29,3.08,.46,4.78,0,1.12-.3,2.6,.71,3.99,1.17q2.52-2.97,6.46-.67c.16,.09,.42,.33,.46,.28,2.5-1.93,4.6,.67,6.74,.59,2.51-.14,5.02,.37,7.28,1.49,1.05,.43,2.18,.58,3.3,.45,1.77-.16,2.22-1.49,1.16-2.97-1.06-1.49-1.79-2.62-3.1-4.58-1.5,1.2-3.17,2.17-4.96,2.89-1.69,.31-3.43,.06-4.96-.73-1.87-.97-3.55-2.26-4.97-3.81-.34-.44-.57-.96-.68-1.51-.11-.55-.08-1.12,.07-1.66,1.19-2.81,3.08-5.32,2.69-8.69,0-.55,1.25-1.68,2.04-1.78,2.13-.32,4.3-.36,6.44-.13,3.24,.36,6.44,.98,9.57,1.87,2.23,.75,4.34,1.82,6.25,3.18,4.06,2.69,8.53,2.97,13.08,2.39,1.1-.13,2.17-1.32,3.07-2.23,2.19-2.19,4.81-1.83,7.44-1.41,2.07,.34,2.28,2.04,1.68,3.45-.44,1.09-.65,2.26-.62,3.44,.03,1.18,.3,2.33,.79,3.4,.49,1.07,1.2,2.02,2.07,2.81,.88,.79,1.9,1.38,3.02,1.76,.71,.1,1.44,.01,2.11-.25,.83-.19,1.65-.51,3.08-.94-.83,1.8-1.4,2.97-1.92,4.12-.52,1.15-.89,2.26-1.62,4.09l9.48-5.83c0-.71-.21-2.13-.39-3.79-3.88,1.28-6.49-.13-8.84-2.68-.85-.92-2.29-1.26-3.29-2.08-1.37-1.13-2.63-2.32-.28-3.94,1.73-1.19,2.98-2.97,4.79-4.08,3.2-2.05,5.12-1.76,8.2,.54,.71,.36,1.48,.62,2.26,.77,1-2.01,0-2.97-1.28-3.97-1.28-1-2.13-1.49-3.75-.7-2.29,1.17-4.14,.8-6.18-1.34-1.8-1.9-4.75-2.66-7.09-4.12-.82-.71-1.53-1.55-2.11-2.47,.82-.55,1.71-1,2.65-1.32,1.73-.33,3.48-.56,5.24-.68,1.23-.18,2.48-.23,3.72-.15,2.27,.31,4.57,.07,6.73-.7,2.87-.94,5.99-.82,8.78,.33,3.59,1.67,5.49,1.49,6.39-2.41,.04-.16,.14-.3,.27-.4,1.64,.58,3.56,1.92,4.46,1.49,.91-.43,1.29-2.78,2.05-4.73-.92-.11-1.85-.11-2.77,0-3.96,.98-7.92,.34-10.54-2.42-1.62-2.03-3.94-3.38-6.5-3.78-.8-.12-1.86-3.32-1.59-4.88,.39-1.93,1.49-3.66,3.08-4.83,1.59-1.18,3.56-1.72,5.52-1.54,1.95,.34,3.66,2.01,5.51,2.97,1.58,.89,3.21,1.73,4.82,2.59l.73-1.1-6.56-5.62c0-.36,.1-.7,.15-1.06,2.08-.58,4.14-1.17,6.24-1.7s4.15-.95,6.22-1.41c.94-.4,1.95-.62,2.98-.64,2.89,.53,5.87-.05,8.33-1.64,3.98-2.47,8.44-2.08,12.61-2.2,9.09-.25,18.2,.27,27.3,.57,3.3,.12,5.75,2.08,7.98,3.88-3.54,2.23-6.58,4.97-10.14,6.14-3.25,1.24-6.35,2.83-9.24,4.74-.4,.24-1.01,.36-1.18,.7-1.32,2.78-4.15,3.29-6.48,4.63-1.32,.77-2.14,2.34-3.32,3.41-1.86,1.88-3.91,3.56-6.12,5.01-1.76,1.03-2.98,1.49-2.17,3.97,.3,.91-.68,2.31-1.25,3.39-1.05,1.43-1.96,2.97-2.71,4.58-.22,.86-.61,1.66-1.14,2.37-.53,.71-1.2,1.3-1.97,1.75-.77,.45-1.61,.73-2.49,.85-.88,.12-1.77,.05-2.63-.18-.97-.27-1.97-.43-2.98-.48-5.52-.36-11.06-.61-16.57-1.03-1.98-.15-3.84-.48-4.47-3.06-.19-.83-2.04-1.26-3.1-1.86,.37,2.05,.67,3.66,.95,5.25l-.86,.61c1.88,.57,3.81,1.01,5.61,1.76,.89,.36,2.17,1.22,2.2,1.89-.03,1.27-.49,2.49-1.31,3.47-.67,.79-2.01,.97-2.98,1.49-1.73,1-2.5,2.04-.74,3.97,1.21,1.61,2.21,3.36,2.98,5.22,.46,1.02,1.17,1.91,2.06,2.58,.89,.68,1.94,1.12,3.04,1.3,1.44,.52,2.76,1.31,3.89,2.34,.73,.56,1.43,1.16,2.1,1.8,.52-.96,.99-1.96,1.4-2.97,.18-.49,0-1.1,0-.89m-8.35,76.84c2.56,1.05,5.17,1.97,7.83,2.74,.72,.16,1.88-.94,2.58-1.69,.15-.16-.7-1.49-1.33-2.05-3.2-2.74-3.88-2.66-9.08,1.01Z"/>
        <path class="cls-3" d="M266.64,359.8c1.15,5.52-2.02,9.47-7.31,9.98-1.83,.41-3.6,1.02-5.3,1.82-.51,2.02-.71,4.65-3.81,5.22-.22,0-.4,.58-.51,.92-.1,.34,0,.82-.16,1.12-1.79,3.14-3.78,6.16-5.95,9.04-1.26,1.49-2.05,2.29,0,3.63,2.05,1.34,2.19,2.81,.57,4.88-1.87,2.27-3.58,4.67-5.12,7.18-2.2,3.72,1.29,10.07,5.6,10.53,1.74,.19,3.45,.58,5.18,.88,.1,.28,.19,.57,.28,.85-.88,.67-1.71,1.4-2.65,1.99-.7,.43-1.58,.61-2.26,1.07-4.57,3.09-9.11,2.39-13.87,.31-4.67-1.86-8.44-5.44-10.54-10.01-.32-.66-.51-1.39-.54-2.13,0-4.12,.15-8.24,0-12.35-.2-1.54-.55-3.06-1.04-4.54,2.9-2.22,2.98-5.83,3.18-9.49,.13-2.38,.85-4.71,1.15-7.08,.7-5.64,.34-11.44,3.75-16.54,.91-1.37,.88-3.41,1.12-5.18,1.19-9.07,2.4-18.16,3.45-27.25,.29-2.33,.25-4.7-.12-7.02-.35-1.35-1.2-2.51-2.37-3.27-1.67-1.07-3.9-1.31-5.43-2.48-2.89-2.22-5.95-4.23-7.53-7.88-2.44-5.52-4.18-11.41-8.77-15.92-1.31-1.31-1.09-4.3-1.31-6.54-.13-1.49,.42-2.98,.31-4.46-.1-2.53,.51-5.03,1.77-7.23,1.25-2.2,3.1-4,5.32-5.21,.65-.49,1.18-1.13,1.54-1.86,.36-.73,.55-1.54,.54-2.35-.49-2.52-1.24-4.99-2.26-7.35-.27-.74-.65-1.49-.98-2.16,.92-.89,3.54-.21,2.37-1.76,1.49-1.19,2.98-2.28,4.36-3.27,4.47-3.08,8.93-6.04,14.59-5.06,1.76,.3,3.23,1.98,4.91,2.88,.85,.51,1.8,.8,2.78,.86,4.14,0,8.28,0,12.41-.31,1.95-.13,2.87,.43,2.75,2.37-.1,1.65,.65,2.38,2.08,3.2,2.06,1.41,4.05,2.93,5.95,4.55,.71,.58,1.59,.92,2.5,1,8.62-.1,13.05,5.21,15.64,12.4,1.19,3.33,3.66,3.82,6.34,4.55,1.49,.37,2.83,.73,4.24,1.15,3.22,.92,6.39,2.07,9.66,2.75,2.33,.24,4.5,1.3,6.13,2.98,1.29,1.18,2.81,2.08,4.47,2.66,3.36,1.49,5.64,6.62,4.03,9.91-1.2,2.26-2.57,4.42-4.08,6.49-1.49,2.13-2.98,4.15-4.47,6.26-.23,.4-.33,.88-.27,1.34,.6,5.55-1.26,10.53-3.48,15.42-.59,1.73-1.42,3.37-2.46,4.88-1.49,1.73-3.36,3.63-5.95,2.8-2.89-.91-4.94,1.17-6.65,2.34-2.55,1.72-5.27,4.24-4.38,8.28,0,.84-.28,1.65-.79,2.32-1,1.74-2.12,3.41-3.35,5-1.3,1.59-2.98,2.84-4.23,4.46-.92,1.16-1.27,2.75-2.13,3.97-.94,1.48-2.27,2.68-3.85,3.47-1.57,.79-3.33,1.13-5.08,1"/>
        <path class="cls-3" d="M286.77,7.45h-3.69c6.98-3.84,13.4-6.56,20.73-4.7,.74,.14,1.5,.07,2.2-.21,8.69-2.97,17.62-2.97,26.52-1.8,3.74,.49,7.32,2.16,10.92,3.42,2.67,.92,5.26,2.05,7.87,3.08l-.89,.7v3.97c2.27,.14,4.56,.14,6.83,0,2.17-.27,4.35-1.7,6.39-1.49,3.11,.63,6.16,1.53,9.11,2.71v1.19l-17.5,11.29,4.46,1.15,.13,.83-4.11,2.89,1.65,.54,.13,.83-4.57,1.12,5.57,1.26c-.52,3.18-1.06,6.53-1.62,9.95,.88,.25,1.71,.61,2.5,1.07,.7,.49,1.19,1.21,1.38,2.04-.09,.87-.5,1.68-1.15,2.28-1.49,1.49-3.11,2.89-4.67,4.31-.43,.48-.89,.94-1.38,1.35-.91,.64-2.53,1-2.74,1.75-.74,2.17-.96,4.47-.64,6.74,1.01,4.11,.33,6.87-3.24,8.92-6.65,3.84-13.92,6.51-21.48,7.87-.97,.26-1.88,.71-2.67,1.32-.79,.62-1.45,1.39-1.93,2.26-1.88,2.69-3.42,6.13-7.71,6.32-3.07,.12-5.7,1.34-6.24,4.97-.04,.28-.14,.55-.3,.79-.15,.24-.36,.45-.6,.6-3.68,1.49-3.93,5.49-5.83,8.25-.22,.5-.3,1.05-.24,1.59-.1,3.6-1.79,5.19-5.13,4.37s-6.43-2.04-9.62-3.15c-.6-.28-1.11-.71-1.49-1.25-1.95-2.56-3.96-5.07-5.72-7.76-.96-1.67-1.77-3.41-2.43-5.22-.22-.49,0-1.49-.36-1.49-3.47-1.49-3.48-4.89-4.03-7.79-.29-2.08-.23-4.19,.19-6.25,.24-1.49,.77-2.36-.74-3.63-1.22-1.01-1.71-2.97-2.4-4.46-.68-1.49-1.28-3.33-1.83-5.01-.36-.76-.5-1.6-.42-2.44,.62-2.19-1.92-4.3,0-6.47-2.55-1.95-2.65-5.95-4.55-7.44-4.23-3.48-9.02-6.93-15.47-4.82-2.35,.78-4.89,.78-7.23,0-3.59-1.65-6.99-3.67-10.17-6.02-.3-.21,.43-1.93,.67-2.97l-3.93-3.66,5.42-1.28c1.31-.09,2.6-.4,3.81-.92,2.51-1.73,5.24-1.65,8.05-1.83,1.24-.18,2.37-.83,3.13-1.83,1.01-1.41,.91-2.87-1.49-2.97-1.18,0-2.34-.36-4.06-.62,.8-1.18,1.15-2.23,1.82-2.54,2.98-1.38,6.19-2.53,9.27-3.81,.82-.34,1.6-.77,2.32-1.29,3.14-2.45,6.82-4.09,10.74-4.79,3.92-.69,7.95-.42,11.73,.8,.57,.18,1.49,.31,1.79,0,1.71-2.07,3.9-1.35,5.95-1.29,1.01-.06,2-.22,2.98-.48,0-.27-.12-.54-.16-.82"/>
        <path class="cls-3" d="M766.37,329.33c.4,6.08,1.37,11.9-.3,17.63-.4,1.06-.65,2.16-.74,3.29,0,1.76-1.04,2.59-2.07,3.85-1.81,2.23-3.07,4.85-3.71,7.65-1.16,5.18-2.02,6.02-7.17,6.05-1.49,0-2.89,1.25-3.99,1.77-3.21-.12-6.4-.44-9.57-.95-3.87-.83-7.59-2.31-9.84-6.22-2.41,.92-4.78,1.32-5.64-2.1-4.33-1.22-6.28-5.64-10.91-7.18-4.38-1.49-8.08,0-12.06-.42-1.25-.13-3.13,1.31-3.99,2.53-.53,.76-1.23,1.37-2.05,1.79-.82,.42-1.73,.64-2.65,.63-2.75,.39-5.47,.99-8.13,1.78-1.62,.51-3.33,.66-5.01,.44-1.68-.22-3.3-.79-4.74-1.69-.49-.51-.86-1.12-1.08-1.79-.22-.67-.28-1.38-.19-2.08,.68-4.46,.45-8.69-2.13-12.63-1.03-1.68-1.91-3.45-2.65-5.28-.27-.67-.36-1.4-.27-2.11,.26-1.25,.45-2.51,.58-3.78,0-3.97,.98-6.72,5.31-8.42,3.83-1.73,7.82-3.1,11.91-4.08,.47-.15,.89-.4,1.25-.73,.36-.33,.64-.74,.83-1.19,2.17-5.79,6.8-9.12,11.91-12,.73-.54,1.62-.8,2.52-.75,.9,.05,1.76,.42,2.42,1.03,1.28,1.12,2.58,1,3.07-1.07,.29-.69,.64-1.35,1.06-1.98,.55-1.21,.79-3.18,1.64-3.49,1.95-.64,4.01-.82,6.04-.54,3.1,.51,6.15,1.24,9.14,2.2,.43,.15,.83,.39,1.16,.71,.33,.32,.58,.71,.74,1.14,.33,2.27,.3,4.61,.4,7.02,1.15,.8,2.35,1.52,3.6,2.14,.68,.31,2.11,.39,2.32,0,.79-1.38,2.05-3.23,1.67-4.46-1.07-3.36,1.49-5.28,2.43-7.81,.43-.13,.89-.18,1.34-.13,.45,.05,.89,.18,1.28,.4,1.04,1.64,1.97,3.35,2.78,5.12,2.17,3.97,4.38,7.89,6.61,11.77,.11,.2,.27,.38,.45,.53,.18,.14,.4,.25,.62,.31,3.77,.13,4.67,3.23,6.19,5.77,.68,.93,1.47,1.78,2.34,2.54,.49,.51,1.37,.88,1.49,1.49,.67,2.98,2.59,3.79,5.8,3.24"/>
        <path class="cls-3" d="M787.74,297.18l-4.61,2.04,2.35,2.56-.45,.51-6.98-2.98c0-.34,.12-.67,.19-1.01l3.95-1.19c-2.62-.73-4.78-1.14-4.39-3.87,0,0-1.56-.48-1.7-.27-1.64,2.53-2.81,.83-3.96-.4-2.23-2.4-4.38-4.89-6.67-7.24-.27-.2-.6-.32-.93-.36-.34-.04-.68,.01-.99,.15-2.87,2.97-6.45,3.67-10.42,3.52,.25,2.5,1.49,2.98,3.62,2.74,1.3,.1,2.58,.41,3.78,.91,.82-.1,2.32-.31,3.81-.42,0,0,.4,1.13,.28,1.22-.92,.6-1.92,1.07-3.17,1.74,.22,3.17-2.23,3.2-4.82,3.36-4.24,.27-7.44-1.7-10.22-4.54-1.49-1.49-2.62-2.17-4.12,.31-.57,.92-2.87,1.35-4.26,1.13-3.5-.59-6.95-1.41-10.34-2.44-.37-.21-.7-.49-.95-.83-.26-.34-.44-.73-.54-1.14-.36-1.31-.27-2.72-.52-4.08-.12-.64-.58-1.71-.89-1.71-.88,0-1.74,.28-2.46,.79-.62,.48-.77,1.61-1.4,2.05-.91,.71-2,1.13-3.14,1.23-.4,0-1.27-1.71-1.12-2.5,.15-.79,1.26-1.38,2.04-1.96,.55-.29,1.13-.51,1.73-.65l-6.83-2.31c.09-.22,.18-.43,.25-.65l-3.48,1.49-.79-.77c4.2-.82,.34-3.94,2.11-5.47-.58-.57-1.4-1.06-1.7-1.77-.17-.38-.25-.78-.25-1.2s.09-.82,.25-1.2c.27-.4,1.49-.42,2.2-.24,2.44,.58,5.24,2.42,7.19,1.76,3.21-1.1,5.85,.34,8.71,.45,5.76,.21,10.94,2.48,16,5.21,2.98,1.58,5.3,4.73,9.18,4.09,1.6-.26,3.16-.71,4.64-1.35,.24-.1,0-1.7-.31-2.48-.12-.33-1.24-.22-1.49-.6-.65-1.07-1.23-2.17-1.73-3.32,1.1,0,2.4-.46,3.26,0,2.18,1.08,4.23,2.41,6.1,3.96,1.49,1.25,2.59,2.98,4.88,2.84,.19,0,.37,.03,.54,.11,.17,.08,.32,.19,.44,.34,2.78,4.7,8.07,4.97,12.32,7.05,.92,.64,1.69,1.48,2.26,2.44,1.16,1.49,2.25,3.09,3.51,4.86"/>
        <path class="cls-3" d="M464.28,27.34c2.46,.91,5.09-.86,6.98,2.36-2.17,.1-3.96,.33-5.73,.25-4.46-.19-4.54,.09-4.94,4.37-.13,1.4-2.19,3.08-3.74,3.78-3.05,1.35-5.55-1.17-8.23-2.13-.58-.21-.55-2.13-.94-3.9-1.55,1.86-2.94,3.85-4.14,5.95-2.1,4.46-4.29,5.13-8.08,1.83-.98-.8-2.01-1.55-3.07-2.25-.3-.22-.79-.34-.91-.62-1.62-4.16-5.55-6.56-7.82-10.23-1.19-1.93,.24-4.46,2.98-4.77,1.4-.18,2.82-.18,4.23,0,5.05,.74,9.32-1.15,13.53-3.6,1.06-.41,2.2-.61,3.34-.57,1.83-.13,3.65-.18,5.48-.22h2.47c1.02-.15,2.06-.15,3.08,0,2.55,.63,4.98,1.63,7.23,2.97,.31,.3,.54,.66,.68,1.07,.14,.4,.18,.84,.12,1.26-.06,.42-.22,.83-.46,1.18-.25,.35-.57,.64-.95,.84-.64,.42-.77,1.61-1.15,2.45"/>
        <path class="cls-3" d="M537.93,67.44c-3.6,1.93-6.94,1.2-10.09,.07-1.77-.74-3.39-1.79-4.79-3.09-1.15-.97-1.21-2.05-.97-3.84,.67-4.98,4.93-6.96,7.44-10.41,.7-1.11,1.45-2.18,2.26-3.21,.9-.86,1.86-1.65,2.87-2.38,1.21-.93,2.37-1.92,3.47-2.97,3.26-3.44,7.01-5.44,11.91-4.83,1.07,.13,2.28-1.15,3.36-1.06,3.86,.3,7.7,.84,11.49,1.62,.52,.1,1.25,2.69,.79,3.26-1.25,1.44-2.77,2.62-4.47,3.5-1.34,.56-2.75,.96-4.18,1.2-1.1,.48-2.26,.79-3.45,.91-2.07-.13-3.47,.43-4.08,2.59l-.48-.91c-1.44,.36-2.82,.93-4.08,1.71-3.68,3.15-7.14,6.53-10.66,9.85-1.09,1.01-1.07,1.77,.16,2.97,1.31,1.56,2.44,3.27,3.36,5.09"/>
        <path class="cls-3" d="M692.39,254.76l-3.44,2.23c0-1.19-.1-2.16-.18-3.33-.34,.33-.64,.46-.71,.67-1.15,3.23-1.7,3.51-4.82,2.01-2.16-1.04-4.21-2.28-6.62-3.58,2.49-3.44,4.65-6.53,6.95-9.52,1.49-1.93,2.25-3.78,.82-6.13-2.31-3.81,0-7.3,1.21-10.68,.89-2.39,5.3-2.38,6.24,0,.83,2.12,1.06,4.43,.66,6.66-.4,1.92-.15,2.62,1.61,2.97,.92,.17,1.77,.62,2.44,1.27,.67,.66,1.13,1.5,1.32,2.42,1.49,4.24,3.39,8.32,4.64,12.61,.39,1.32-.55,3.32-1.41,4.67-.86,1.35-1.89,3.58-4,2.56-1.78-1.1-3.41-2.4-4.87-3.9l.18-.92"/>
        <path class="cls-3" d="M517.09,299.27c3.2,1.49,5.46,6.8,4.24,10.41-1.22,3.61-2.19,7.3-3.38,10.93-1.19,3.63-2.59,7.66-4.08,11.42-1.09,2.77-3.8,2.42-6.06,2.57-.9,.15-1.82-.05-2.57-.56-.75-.51-1.27-1.3-1.45-2.19-.52-1.95-1.77-3.75-1.98-5.7-.16-1.49,.83-3.11,1.24-4.68,.55-1.26,.82-2.62,.79-3.99-1.06-4.25,.69-6.98,3.92-9.52,3.23-2.54,6.16-5.7,9.33-8.7Z"/>
        <path class="cls-3" d="M747.27,159.6c1.21,2.69-2.2,3.17-3.27,4.86-1.07,1.7-3.19,2.87-5.21,4.58,2.4,3.51-.18,6.84-2.17,10.41-.28,.97-.34,1.98-.16,2.97,0,2.86-1.15,4.19-3.91,4.46-2.77,.27-5.86,.42-8.57,2.26-1.73,.91-3.74,1.15-5.64,.65-2.84-.67-4.02,1.19-5.6,2.65-.76,.7-1.65,2.13-2.22,2.01-.98-.33-1.81-1.01-2.32-1.91-.51-.9-.66-1.96-.42-2.97,.08-.27,.23-.52,.43-.71,3.29-2.38,6.16-5.73,10.42-5.95,1.11-.03,2.19-.32,3.17-.84,.98-.51,1.83-1.25,2.48-2.14,.64-.79,1.34-1.8,2.22-2.05,5.2-1.49,4.84-5.79,5.02-9.77,0-1.2-.36-2.45-.22-3.64,0-.64,.76-1.64,1.28-1.71,2.59-.33,3.32-2.07,3.75-4.22,.54-2.69,1.1-2.59,3.44-1.26,2.05,1.19,4.61,1.49,7.44,2.35"/>
        <path class="cls-3" d="M555.93,19.16c-1.82-.49-3.47-.79-4.47,1.49-.21,.46-1.49,.55-2.28,.64-1.58,.16-3.17,.19-4.7,.28-.58,3.29-3.53,4.3-6.18,2.35-.63-.48-1.39-.76-2.17-.82-2.34,0-4.82,.46-5.54-2.97-2.56,3.94-4.54,4.12-8.41,1.65-.94-.6-3.15-.83-3.62-.27-2.65,3.18-5.69,.97-8.53,.92-.55,0-1.07-.7-1.64-1.03-.97-.57-1.95-1.09-2.98-1.62,.71-1.12,1.54-2.16,2.47-3.09,2.01-1.68,4.11-3.63,6.88-1.04,.29,.15,.61,.22,.94,.22s.65-.08,.94-.22c3.1-1.7,5.73-1.26,8.01,1.78,.4-1.01,.7-1.77,1.07-2.75,3.24,3.53,4.72-.85,7.05-1.49,2.04-.52,3.87-1.8,5.95-2.38,.91-.27,2.08,.36,3.14,.58-.3,.92-.57,1.84-.92,2.74-.24,.58-.61,1.1-1.09,1.96,2.43,.16,4.24,0,5.55-2.07,.59-.81,1.42-1.41,2.37-1.74,1.58-.57,7.71,1.95,8.17,3.45,.19,1.16,.19,2.34,0,3.5l-.03-.07Z"/>
        <path class="cls-3" d="M139.66,37.51l-.13,1.19,.6-.58c1.18,1,2.29,2.1,3.56,2.97,1.04,.71,2.28,1.15,3.39,1.77,1.12,.62,1.86,1.19,2.8,1.78-.56,.71-.98,1.65-1.71,2.07-1.08,.5-2.21,.87-3.38,1.09-3.11,.85-6.25,1.61-9.33,2.53-2.61,.79-5.17,2.07-7.35-.86-.33-.45-1.13-.58-1.74-.76-3.26-.92-6.97-1.15-9.65-2.97-2.36-1.47-5.07-2.28-7.84-2.36-1.82-.18-1.49-1.58-.65-2.72,1.19-1.49,2.4-2.97,3.72-4.46,.54-.51,1.24-.82,1.98-.88,2.66-.18,5.33-.28,8.01-.28,1.73,0,3.23,.24,3.91,2.41,.24,.74,2.11,.95,3.47,1.49,0,.37-.1,1.06-.18,1.89l6.68,.71,3.41-4.37,.45,.27"/>
        <path class="cls-3" d="M344.03,92.59c-1.12-.85-2.12-1.85-2.98-2.97-1.03-1.8,.48-2.83,1.71-3.9,2.17-1.9,3.84-3.12,7.28-1.32,1.48,.72,3.12,1.04,4.76,.9,1.64-.14,3.21-.71,4.55-1.67,1.1-.77,2.42-1.16,3.76-1.11s2.63,.52,3.68,1.37c1.77,1.48,2.98,3.52,3.42,5.79,.24,1.06-1.38,2.97-2.65,3.85-3.11,1.91-6.31,3.66-9.6,5.24-1.26,.66-2.7,.9-4.1,.68-1.4-.23-2.7-.9-3.68-1.93-.36-.29-.77-.51-1.2-.65-3.53-1.37-3.54-1.37-4.97-4.27"/>
        <path class="cls-3" d="M225.35,217.82l4.47,4.22c2.35-.73,7.63,1.59,8.38,4.24,.04,.52-.05,1.05-.27,1.53s-.55,.89-.97,1.21c-1.7,.86-3.56,1.36-5.46,1.49-1.65,0-3.32-.89-5.02-1.04-2.4-.19-4.29-.73-4.35-3.76l-2.98,.16c.04,.34,.04,.69,0,1.03-.48,1.37-.98,2.72-1.49,4.09-1.54-.75-3.03-1.59-4.47-2.51-.27-.19,.12-1.41,.33-2.13,.21-.71,.89-1.32,.8-1.89-.45-2.75-6.43-4.94-8.77-3.29-.89,.62-7.44,0-7.56-.94-.19-1.33,.1-2.68,.8-3.82,2.46-3.24,9.15-3.64,12.7-1.49,3.43,2.03,6.99,3.82,10.67,5.34,.61,.25,1.85-.95,2.78-1.49l.39-.95Z"/>
        <path class="cls-3" d="M679.05,258.21c.84,3.18,1.42,6.42,1.73,9.7,0,2.04-1.19,4.12-2.01,6.13-.67,1.67-1.71,3.18-2.35,4.86-.54,1.4-1.09,2.19-2.83,1.86-1.94-.29-3.9-.45-5.86-.48-2.01-.06-3.96-.75-5.56-1.97-1.6-1.22-2.78-2.91-3.37-4.84-.52-1.49-2.25-2.74-.74-4.86,.72-.97,1.7-1.72,2.83-2.17,1.13-.45,2.35-.57,3.55-.36,2.27,.18,4.54-.34,6.5-1.51,1.96-1.17,3.51-2.91,4.42-4.99,.89-2.39,1.83-2.57,3.72-1.37"/>
        <path class="cls-3" d="M635.98,272.01l-4.85-1.67c-.23-.46-.34-.97-.3-1.49,.61-3.69-1.49-5.76-4.18-7.61-1.21-.82-2.59-2.2-1.21-3.7,1.18-1.26,2.46-1.26,3.95,.46,2.46,2.75,5.18,5.27,8.11,7.53,1.77,1.49,4.03,2.16,5.95,3.47,.87,.77,1.56,1.73,2.01,2.81,1.13,2.14,1.67,4.82,5.21,4.19,.42,0,1.67,1.92,1.71,2.98-.2,1.44-.57,2.84-1.1,4.19-.34,1.71-2.38,2.98-3.81,2.02-3.88-2.63-7.64-5.44-11.46-8.15-2.01-1.49-2.46-2.97,0-5.07"/>
        <path class="cls-3" d="M652.41,286.18c1.24,.12,2.45,.41,3.62,.85,4.81,2.74,10.05,1.25,15.08,1.76,1.06,.16,2.1,.42,3.11,.77,.86,.35,1.74,.63,2.65,.83,4.08,.51,8.45,2.01,12.17,1.04,3.47-.91,7.84,.62,10.63-2.98,.25-.34,1.49-.3,2.02,0,1.37,.79,2.68,1.66,3.93,2.62-1.92,1.38-3.38,2.54-4.96,3.55-1.49,.71-2.93,1.54-4.3,2.47-.69,.71-1.58,1.2-2.54,1.43-.97,.22-1.98,.16-2.91-.18-3.05-1.06-5.95-2.53-9.11-3.3-2.6-.65-5.42-.43-8.1-.86-1.46-.4-2.87-.95-4.21-1.64-.4-.23-.83-.4-1.28-.52-4.12-.62-8.26-1.32-12.41-1.76-2.29-.24-3.68-.95-3.39-4.07"/>
        <path class="cls-3" d="M637.97,22.24c-.23,.61-.42,1.25-.55,1.89-.8,4.77-1.49,4.77-6.28,4.46-4.98-.42-9.81-1.9-14.17-4.34-1.79-.94-1.49-1.71-.58-2.97,.7-1.28,1.52-2.5,2.46-3.61,1.43-1.32,3.08-2.38,4.87-3.15,1.74-.65,3.64-.74,5.43-.26,1.79,.48,3.39,1.51,4.57,2.94,1.4,1.62,2.75,3.27,4.26,5.06Z"/>
        <path class="cls-3" d="M731.14,40.55c4.29-1.07,7.86,1.38,11.71,2.34,3.42,.83,6.95,1.31,10.42,1.9,.64,.12,1.31,0,1.97,.15,1.8,.24,4.03,.43,3.86,2.78-.18,2.35-2.49,2.08-4.03,1.86-2.44-.36-4.79-1.26-7.22-1.76-1.13-.23-2.3-.23-3.44,0-2.14,.45-4.23,1.35-6.39,1.61-2.62,.29-5.26,.29-7.87,0-1.68-.35-3.3-.92-4.84-1.68-1.02-.36-2.02-.79-2.98-1.28-.62-.4-1.2-.87-1.73-1.38,.49-.57,.91-1.49,1.49-1.61,1.92-.33,3.65-.49,5.06-2.31,.62-.79,2.62-.52,3.99-.73"/>
        <path class="cls-3" d="M795.44,317.55c.24-.08,.49-.15,.74-.21,.88-.18,1.77-.33,2.65-.48-.54-.65-1.12-1.25-1.61-1.93-1.41-1.98-2.79-4.01-4.15-6.07-.08-.17-.13-.35-.13-.54s.04-.37,.13-.54c1.49-2.41,1.93-5.68,5.3-6.98,1.68,4.88,3.3,9.67,4.97,14.43,.16,.52,.62,.92,.8,1.49,.3,.85,.49,1.76,.71,2.63-.89,.29-1.8,.5-2.72,.62-.72-.06-1.43-.21-2.11-.45-.1,.33-.25,.55-.19,.65q2.81,4.58-2.41,6.28c-.62,.19-1.2,.5-1.71,.91-1.65,1.34-2.77,1.92-2.83-1.13,0-.74-1.37-1.49-2.1-2.2-.78-.62-1.45-1.37-1.98-2.22-.27-1.01-.39-2.06-.36-3.11,1.57-.05,3.15,0,4.72,.15,.73,.09,1.37,.8,2.06,1.23,.1-.8,.19-1.62,.3-2.5"/>
        <path class="cls-3" d="M814,375.83c-.9,1.7-1.96,3.32-3.17,4.82-2.6,2.79-4.56,6.12-5.75,9.74-.32,.85-.84,1.61-1.52,2.21-.68,.6-1.5,1.02-2.39,1.22-.89,.2-1.81,.18-2.69-.06-.88-.24-1.68-.7-2.33-1.33-3.98-3.24-3.78-3.15-1.16-7.72,1.4-2.44,2.71-4.07,5.78-3.44,.46,.09,1.1-.62,1.65-1,.55-.37,1.12-1.1,1.49-1.01,2.67,.6,4-1.31,5.24-2.9,1.24-1.59,2.62-1.8,4.75-.55"/>
        <path class="cls-3" d="M821.01,374.13c.3-1.07,.61-2.14,.91-3.21l-.39-.19-3.93,4.92c-1.39-2.48-2.56-4.6-3.72-6.71l-1.1,.43c.45,1.32,.89,2.65,1.33,3.96-1.97,.49-1.92,.49-2.08-1.58,0-.43-.76-.79-.85-1.23-.12-.71-.18-2.02,0-2.11,2.34-.86,1.68-2.4,1-3.9-.67-1.11-1.28-2.26-1.82-3.44-.56-1.64-.89-3.35-.98-5.09,0-.58,1.06-1.56,1.76-1.68,.7-.12,1.49,.65,1.98,1.25,2.01,2.48,3.79,5.16,5.95,7.44,.98,.81,2.21,1.27,3.48,1.29,2.14,.18,3.27,.83,2.32,3.14-.95,2.31-2.04,4.7-2.98,7.04l-.86-.4"/>
        <path class="cls-3" d="M749.16,373.69c.28-.64,.4-1.49,.85-1.77,.64-.48,1.43-.71,2.23-.67,.32,.12,.6,.32,.82,.58,.22,.26,.37,.57,.43,.91,.22,3.06,.14,6.14-.22,9.19-.16,1.01-2.14,2.35-3.36,2.42-1.79,.09-4.57-.24-5.27-1.4-1.86-3.47-3.43-7.08-4.7-10.8-.1-.61-.1-1.22,0-1.83,3.87-.97,5.66,3.17,9.26,3.36"/>
        <path class="cls-3" d="M155.98,34.73l1.19-1.83c-.25-.18-.53-.32-.82-.42-1.59-.06-3.18-.21-4.75-.46-.62-.13-1.15-.97-1.59-1.58-.56-.75-1.05-1.55-1.49-2.38-.27-.57-.76-1.4-.55-1.78,.73-1.38,4.96-1.95,6.33-1.13,.94,.55,2.07,.79,2.98,1.32,2.54,1.28,4.99,2.72,7.35,4.3,.31,.19,.56,.48,.7,.82,.15,.34,.19,.71,.12,1.07-.07,.36-.24,.69-.5,.95-.26,.26-.59,.44-.95,.51-2.57,.67-5.19,1.17-7.83,1.49-.1-.3-.22-.61-.33-.92"/>
        <path class="cls-3" d="M686.78,274.14l5.64-.57c-2.53,2.53-3.08,4.63-.57,7.27,.51,.52-.15,2.14-.25,3.24-.77-.5-1.51-1.04-2.2-1.64-.76-.74-1.39-1.61-2.58-2.98-.61,2.35-1.03,3.97-1.49,5.7-1.92-1.64-3.26-7.32-2.37-9.52,.6-1.06,1.02-2.22,1.24-3.42,0-3.14,2.25-3.6,4.46-3.76,2.74-.18,5.49,0,8.38,0-.04,.43-.18,.85-.39,1.22-.21,.38-.5,.7-.85,.96-.35,.26-.74,.44-1.17,.53-.42,.09-.86,.1-1.28,.01-1.67-.24-3.37-.24-5.05,0-.89,.19-1.56,1.38-2.32,2.11l.76,.83"/>
        <path class="cls-3" d="M741.48,151.9c-3.33,1.92-4.3,1.49-4.63-1.87-.25-1.98-.16-3.99,.25-5.95,.24,.62,.49,1.23,.73,1.86l.97-.13c-.36-4.09-.71-8.18-1.01-11.78l-4.11-3.51c1.88-.73,3.21-1.24,4.46-1.77,.31-.19,.67-.29,1.04-.29,.37,0,.72,.12,1.03,.32,.3,.2,.54,.49,.69,.82,.15,.33,.19,.7,.14,1.06-.12,3.87,1.37,7.27,2.38,10.84,.58,2.02,.4,3.85-2.1,4.75-1.67,.6-1.89,1.92-1.01,3.44,.37,.64,.67,1.31,1.1,2.14"/>
        <path class="cls-3" d="M125.72,33.15c3.5-2.01,7.11-3.82,10.82-5.41,1.22-.46,3.32,.55,4.64,1.49,1.62,1.1,.68,2.57-.19,3.9-2.8,4.24-5.87,5.13-10.42,2.84-1.65-.83-3.22-1.83-4.82-2.77"/>
        <path class="cls-3" d="M636.4,32.87c1.8-2.8,3.47-5.71,5.52-8.31,.49-.62,2.48-.65,3.41-.19,2.12,1.11,4.11,2.43,5.95,3.96,.3,.23,.52,.54,.64,.9s.14,.74,.05,1.1c-.09,.36-.29,.69-.56,.95-.28,.25-.62,.42-.99,.49-4.47,.65-8.93,1.09-13.28,1.61l-.8-.49"/>
        <path class="cls-3" d="M180.24,35.34c-1.35,.41-2.76,.6-4.17,.58-3.14-.49-6.56-.73-8.6-3.66-.29-.47-.46-1.01-.49-1.56-.03-.55,.07-1.1,.31-1.61,.44-.33,.96-.53,1.51-.6,.55-.07,1.1,.01,1.6,.23,1.7,1.29,4.66,1.28,4.96,4.3,0,.3,1.28,.52,1.99,.68,.95,.22,1.92,.33,2.87,.48v1.16Z"/>
        <path class="cls-3" d="M701.4,275.64c.57-3.24,1.09-6.5,1.77-9.71,.09-.42,.98-.92,1.49-.92,.3,.04,.6,.14,.86,.31,.26,.17,.47,.39,.63,.65,.46,.72,.68,1.56,.64,2.41-.43,2.32-1.06,4.59-1.89,6.8-.22,.58-1.67,.68-2.54,1.01l-.92-.55"/>
        <path class="cls-3" d="M797.85,130.49h-2.98c-2.01-2.78-5.21-5.03-2.98-8.57,.95,.59,2,1,3.1,1.19,2.54,0,2.98,1.18,2.77,3.33-.08,1.35-.08,2.7,0,4.05"/>
        <path class="cls-3" d="M344.15,238.35c-1.61-2.05-3.1-4.18-4.46-6.4-.83-1.56,.83-2.69,3.6-2.38,.09,.46,.15,.98,.3,1.49,.15,.51,.37,1.03,.61,1.64,.34-.22,.71-.39,1.1-.51h2.38c0,.89-.16,1.77-.46,2.6-.9,1.26-1.9,2.46-2.98,3.57"/>
        <path class="cls-3" d="M381.26,101.48c0-1.65,.18-2.89,2.4-2.81,2.22,.07,3.27,.83,3.1,2.97-.13,1.68-.6,3.35-2.98,3.33-2.38-.01-2.5-1.74-2.59-3.45"/>
        <path class="cls-3" d="M401.1,104.93c-.8,1.31-1.5,2.67-2.1,4.08-.06,.32-.19,.61-.39,.87-.19,.26-.44,.46-.73,.61-.29,.14-.61,.22-.93,.22-.32,0-.64-.07-.93-.21-.37-.25-.68-.6-.88-1-.21-.4-.31-.85-.29-1.3,.24-1.34,.7-3.24,1.67-3.72,.97-.48,2.84,.21,4.64,.46"/>
        <path class="cls-3" d="M708.88,201.63l-1.28,2.25c-.64,1.13-1.22,2.32-1.93,3.41-.41,.82-1.04,1.51-1.82,1.99-.49,.21-1.93-.43-1.98-.82-.13-1.01-.1-2.54,.51-2.98,1.49-1.13,3.29-1.67,3.57-3.93,0-.28,1.49-.4,2.37-.59,.18,.25,.37,.49,.57,.74"/>
        <path class="cls-3" d="M254.48,241.61c-.52-2.59-1.18-5.43-1.59-8.31-.1-.73,.55-1.58,.86-2.37,.63,.63,1.22,1.3,1.77,1.99,.19,.25,0,.79,.16,1.09,1.67,2.98,1.8,5.74-1.21,7.6Z"/>
        <path class="cls-3" d="M619.29,247.34c-.27-2.32-.4-4.66-.4-6.99,0-.71,1.12-1.59,1.92-1.99,.45-.22,1.85,.3,1.88,.6,.03,.94-.12,1.87-.45,2.75-.27,1.06-.7,2.07-1,3.11-.3,1.04-.43,1.79-.64,2.68l-1.31-.15Z"/>
        <path class="cls-3" d="M245.67,228.58c-1.26,.74-2.62,1.27-4.05,1.58-.7,0-2.07-1.29-2.16-2.13-.08-.4-.05-.82,.07-1.2,.13-.39,.35-.74,.64-1.02,.3-.28,.66-.48,1.05-.59,.4-.1,.81-.11,1.21-.01,1.22,.19,2.26,1.49,3.38,2.23,0,.39-.09,.76-.12,1.14"/>
        <path class="cls-3" d="M752.18,154.2c1.86-.74,3.77-1.37,5.54-2.25,.73-.37,1.15-1.31,1.79-1.9,.42-.39,1.25-.97,1.49-.83,.71,.51,1.29,1.19,1.67,1.98,.12,.28-.52,1.03-.94,1.49-.86,.82-1.77,1.58-2.72,2.29-1.22,1-2.64,1.71-4.17,2.08l4-3.12-.61-1.13-6.07,1.37,.03,.03Z"/>
        <path class="cls-3" d="M185.16,275.43c-3.07,.1-4.3-1.1-4.15-2.98,0-.85,2.06-2.39,2.23-2.26,1.45,1.09,2.81,2.29,4.06,3.6l-2.14,1.67"/>
        <path class="cls-3" d="M707.81,291.11c1.09-1.07,2.25-2.06,3.47-2.98,.34-.2,.73-.33,1.12-.36,.4-.03,.8,.03,1.17,.18,.34,.26,.63,.6,.84,.98,.21,.38,.33,.8,.37,1.24-.04,.37-.18,.73-.4,1.04-.22,.3-.52,.55-.86,.7-1.93,.19-3.9,0-5.86,0,0-.28,.1-.58,.16-.86"/>
        <path class="cls-3" d="M732.92,56v-.73c.45-1.34,.91-2.68,1.35-4,1.49,.65,3.14,1.25,4.64,1.99,.2,.16,.37,.36,.49,.59,.12,.23,.19,.48,.21,.74-.04,.21-.13,.41-.26,.57-.13,.17-.3,.3-.5,.38-1.89,.21-3.78,.3-5.95,.45"/>
        <path class="cls-3" d="M797.94,299.62c-2.68,0-4.9-.09-5.43-2.5-.13-.62,1.92-2.5,2.98-2.47,3.26,.09,1.58,2.97,2.5,4.97"/>
        <path class="cls-3" d="M444.16,46.88l4.29,3.3c-.92,.87-1.99,1.59-3.14,2.13-.36,.13-.75,.16-1.13,.09-.38-.07-.73-.24-1.02-.49-.29-.25-.51-.57-.64-.93-.13-.36-.16-.75-.09-1.13,0-.79,.86-1.49,1.74-2.97Z"/>
        <path class="cls-3" d="M164.71,25.88c-1.17-1.1-2.17-2.37-2.98-3.76-.16-.43,1.49-1.58,2.34-2.38,1.07,1.13,2.06,2.33,2.98,3.58,.1,.18-1.12,1.25-2.34,2.56Z"/>
        <path class="cls-3" d="M813.72,136.75c-1.37-.54-2.66-1.26-3.84-2.14-.59-.58-.49-1.87-.71-2.84,1.03-.1,2.31-.65,2.98-.24,.45,.23,.85,.56,1.18,.95,.32,.39,.56,.85,.7,1.34,.14,.49,.18,1,.11,1.51-.07,.5-.24,.99-.5,1.43"/>
        <path class="cls-3" d="M751.1,279.24c-1.49-.42-2.98-.79-4.47-1.34-.1-.67,.04-1.35,.4-1.92,.79-.61,2.4-1.49,2.75-1.13,.88,1,1.59,2.13,2.1,3.36l-.79,1.03Z"/>
        <path class="cls-3" d="M153.36,36.6c-2.26,1.49-6.16,0-6.13-1.62,0-.52,1.58-1.61,1.92-1.49,1.49,.9,2.9,1.92,4.21,3.05"/>
        <path class="cls-3" d="M764.73,301c-.86-1.26-1.64-2.58-2.32-3.94-.09-.21,1.33-1.4,1.49-1.31,1.28,.92,2.44,2.02,3.63,3.06l-2.75,2.19"/>
        <path class="cls-3" d="M587.05,30.71c.19,3.09-.12,3.26-4.72,2.47-.77-3.15,0-3.58,4.72-2.47Z"/>
        <path class="cls-3" d="M213.13,96.83c1-2.1,3.94-3.24,5.21-2.32,.21,.18,.36,.41,.45,.68,.09,.26,.11,.54,.05,.81-.11,.27-.29,.52-.51,.72-.22,.2-.49,.34-.77,.43-1.49,0-2.98-.07-4.46-.24"/>
        <path class="cls-3" d="M528.11,245.31c-.82-1.49-1.7-2.35-1.49-2.83,.56-1.03,1.27-1.98,2.1-2.81,.55,.62,1.67,1.38,1.49,1.84-.55,1.35-1.27,2.62-2.14,3.79"/>
        <path class="cls-3" d="M700.41,279.43l9.81-.94v1.29c-3.23,1.49-6.58,.08-9.87-.36"/>
        <path class="cls-3" d="M555.79,19.25c2.8-.74,2.64,1.31,2.66,2.97,0,2.25-1.49,1.59-3.07,1.32,.18-1.49,.33-2.97,.49-4.37l-.09,.09"/>
        <path class="cls-3" d="M539.5,56.7l4.57,.95c-.24,.82-.27,2.19-.74,2.37-1.98,.76-3.17-.22-3.83-3.32Z"/>
        <path class="cls-3" d="M695.58,214.7c-.83-.98-1.91-1.87-1.76-2.14,.19-.43,.47-.81,.82-1.13,.34-.32,.75-.57,1.19-.73,.55-.07,1.29,1.07,1.96,1.67l-2.22,2.33Z"/>
        <path class="cls-3" d="M213.76,100.89c-.99,.89-2.09,1.67-3.26,2.32-.31,.13-1.09-.85-1.65-1.32,.56-.85,1.26-1.6,2.07-2.22,.42-.22,1.4,.6,2.84,1.28"/>
        <path class="cls-3" d="M798.73,120.77c-3.07,1.62-3.89-.6-5.27-1.32,.36-.52,.75-1.02,1.18-1.49,1.27,.77,2.47,1.67,4.09,2.86"/>
        <path class="cls-3" d="M416.99,25.3l-2.01,2.1c-.58-.57-1.7-1.23-1.62-1.68,.3-.83,.89-1.52,1.67-1.95,.18-.12,1.04,.8,1.96,1.49"/>
        <path class="cls-3" d="M618.7,16.27l-4.85,.27c0-.58-.27-1.49,0-1.7,1.49-1.06,2.98-.85,4.87,1.49"/>
        <path class="cls-3" d="M339.13,179.6c-.7-1.28-1.35-1.98-1.35-2.68,0-.45,1.1-1.34,1.49-1.24,.7,.19,1.64,.95,1.7,1.49,.06,.54-.89,1.22-1.83,2.36"/>
        <path class="cls-3" d="M699.42,264.77c-1.1-2.35-.74-3.57,1.09-3.66,.37,0,1.22,1.26,1.12,1.49-.67,.81-1.41,1.56-2.2,2.25"/>
        <path class="cls-3" d="M558.85,25.98c2.75-2.35,4.06-2.19,4.93,.52l-4.93-.52Z"/>
        <path class="cls-3" d="M656.61,260.3c.85,.97,1.7,1.49,1.83,2.23,.07,.46-.86,1.11-1.35,1.68-.61-.68-1.14-1.41-1.59-2.2-.12-.25,.54-.86,1.12-1.71Z"/>
        <path class="cls-3" d="M721.42,53.11c1-3.29,2.43-2.1,3.81-1.4,0,.3,0,.58,.1,.89l-3.91,.51Z"/>
        <path class="cls-3" d="M336.99,175.52c-1.37,.68-2.04,1.29-2.65,1.25-.61-.04-1.06-.83-1.59-1.28,.49-.52,.97-1.49,1.49-1.49,.7,0,1.4,.7,2.8,1.49"/>
        <path class="cls-3" d="M752.09,154.11c1.33,2.44,1.01,2.97-2.13,3.39,.36-.73,.65-1.31,1.09-2.16l-1.76,.33c0-.22-.13-.45-.21-.67l3.1-.8-.09-.09Z"/>
        <path class="cls-3" d="M622.09,251.46c1.76,1.07,1.97,2.27-.4,4.28l-.71-4.11,1.12-.18Z"/>
        <path class="cls-3" d="M377.74,19.16c-.27,1.84-.49,3.51-3.16,2.57,.27-1.78,.37-3.58,3.16-2.57Z"/>
        <path class="cls-3" d="M360.52,3.61c-1.71,2.53-2.72,2.44-4.18-.31l4.18,.31Z"/>
        <path class="cls-3" d="M802.12,192.61c.86,.28,1.67,.68,2.41,1.19,.74,.37,1.44,.82,2.07,1.35,.96,1.18,1.82,2.43,2.59,3.75"/>
        <path class="cls-3" d="M800.81,199.16c-.51,.14-1.04,.21-1.56,.19,.07,.86,.34,1.7,.77,2.45,.45,.76,.95,1.49,1.49,2.19,.52,.63,1.09,1.21,1.7,1.76,.62,.48,.55,.95,.46,1.01-.22,.1-.45,.15-.69,.15s-.47-.05-.69-.15c0,0-.36,0-.45-.07-.09-.07-.12-.33-.36-.36-.23-.04-.45-.12-.67-.21,0,0,0-.16-.16-.16s-.55,.1-.6-.12c-.04-.22-.09-.52-.3-.55l-.57-.1c-.08-.04-.14-.1-.18-.17-.05-.07-.07-.15-.07-.24,0-.31-.48-.49-.65-.48-.18,.02-.89-.1-1.03-.62-.13-.52-.46-.33-.52-.49-.1-.27-.14-.56-.13-.85-.08-.17-.19-.32-.33-.45-.16-.09-.24-.76-.24-.92-.02-.1-.06-.2-.12-.28s-.14-.15-.23-.2c-.12,0-.18-.5-.15-.65,.03-.15-.42-.49-.79-.6-.37-.1-.3-.12-.37-.3-.04-.16-.04-.33,0-.49,0,0-7.62-1.34-9.27-1.87-1.65-.54-5.25-1.49-6.34-1.73-1.33-.33-2.72-.29-4.03,.1-.23,.07-.45,.19-.64,.34-.48,.15-.98,.24-1.49,.27-.28,0-.25,.25-.43,.34-.57,.08-1.14-.05-1.62-.36-.25-.34-.22-.37-.51-.51-.11-.09-.23-.16-.37-.19-.14-.04-.28-.04-.42-.02,0,0-.3,0-.36-.48-.09-.43-.09-.88,0-1.31,.1-.31,.43-.57,.57-.55,.56-.09,1.11-.24,1.64-.45,.28-.16,1.98-.62,2.56-.95,.65-.32,1.31-.61,1.99-.85,0,0,1.83-.77,2.03-.8,.19-.03,1.49-.65,2.56-.94,.98-.3,1.97-.55,2.98-.74,.88-.18,1.77-.25,2.66-.21,.73,.08,1.42,.34,2.02,.76,.75,.56,1.37,1.28,1.82,2.11,.36,.53,.88,.91,1.49,1.1,.45,.12,.91,.22,1.37,.28,1.13,0,3.1,.28,5.95,.67"/>
        <path class="cls-6" d="M195.33,222.66c-.01,7.94-2.38,15.7-6.81,22.29-4.42,6.59-10.71,11.73-18.05,14.76-7.34,3.03-15.42,3.81-23.21,2.26-7.79-1.56-14.95-5.39-20.56-11.01-5.61-5.62-9.43-12.78-10.98-20.56-1.54-7.79-.74-15.86,2.3-23.19,3.04-7.33,8.19-13.6,14.8-18.01,6.61-4.41,14.38-6.76,22.32-6.76,5.28,0,10.52,1.04,15.4,3.06,4.88,2.02,9.31,4.99,13.05,8.72s6.69,8.17,8.71,13.05c2.01,4.88,3.05,10.11,3.04,15.39Z"/>
        <path class="cls-6" d="M149.25,182.84H0v55.42H149.25v-55.42Z"/>
        <path class="cls-5" d="M128.14,233.98l-.22-2.97c3.05-.42,5.93-1.63,8.36-3.51,2.43-1.88,4.33-4.36,5.5-7.2,1.41-3.04,3.11-5.93,5.08-8.64,2.82-3.64,6.92-6.06,11.48-6.77,4.92-.63,9.89,.7,13.83,3.72,2.2,1.44,3.76,3.68,4.36,6.25l.33,2.84-2.52-1.35c-1.01-.54-4.11-1.72-6.27-.86-.57,.26-1.08,.65-1.48,1.13-.4,.49-.68,1.05-.83,1.66-.71,2.18-.52,4.56,.52,6.6,1.71,3.33,5.79,7.02,15.66,5.7l.4,2.97c-12.19,1.65-16.95-3.87-18.71-7.29-.7-1.37-1.12-2.86-1.24-4.39-.12-1.53,.06-3.07,.54-4.53,.28-1.03,.78-1.98,1.48-2.78,.7-.8,1.57-1.44,2.55-1.86,1.6-.57,3.33-.67,4.99-.3-.49-.54-1.03-1.04-1.61-1.49-3.29-2.54-7.46-3.66-11.58-3.14-3.78,.55-6.58,2.22-9.64,5.77-1.8,2.48-3.34,5.13-4.61,7.91-1.38,3.34-3.62,6.26-6.5,8.46-2.87,2.2-6.27,3.6-9.86,4.07Z"/>
        <path class="cls-4" d="M468.14,224.82c0,7.94-2.36,15.71-6.77,22.31-4.42,6.6-10.69,11.75-18.04,14.79-7.34,3.04-15.42,3.83-23.22,2.29-7.8-1.55-14.96-5.37-20.58-10.99-5.62-5.62-9.45-12.77-11-20.56-1.55-7.79-.75-15.87,2.29-23.2,3.04-7.34,8.19-13.61,14.8-18.02,6.61-4.41,14.38-6.77,22.33-6.77,10.66,0,20.88,4.23,28.42,11.76,7.54,7.53,11.77,17.75,11.77,28.4Z"/>
        <path class="cls-4" d="M431.33,184.42h-149.31v51.85h149.31v-51.85Z"/>
        <path class="cls-5" d="M424.81,236.22c-3.77-.21-7.32-1.85-9.91-4.59-2.6-2.74-4.04-6.37-4.04-10.14s1.45-7.4,4.04-10.14c2.6-2.74,6.14-4.38,9.91-4.59,3.92-.01,7.68,1.54,10.45,4.3,2.78,2.76,4.34,6.51,4.35,10.42,.01,3.91-1.54,7.67-4.3,10.44-2.76,2.77-6.51,4.34-10.43,4.35m9.45-14.71c0-2.52-1-4.93-2.78-6.71-1.78-1.78-4.2-2.78-6.71-2.78s-4.93,1-6.71,2.78c-1.78,1.78-2.78,4.19-2.78,6.71s1,4.93,2.78,6.71c1.78,1.78,4.2,2.78,6.71,2.78s4.93-1,6.71-2.78c1.78-1.78,2.78-4.19,2.78-6.71Z"/>
        <path class="cls-5" d="M447.69,241.92v2.56h-8.93c0-1.07-.25-2.07,.77-2.98,1.31-1.16,2.49-2.48,3.69-3.78,.44-.47,.82-1,1.13-1.56,.18-.29,.25-.63,.21-.96-.04-.34-.2-.65-.44-.88-.25-.24-.59-.39-.94-.41-.35-.02-.7,.08-.98,.29-.52,.42-1.02,.87-1.49,1.35l-2.14-1.26c.5-1.09,1.38-1.97,2.47-2.46,1.09-.5,2.33-.58,3.48-.24,.6,.14,1.16,.42,1.63,.83,.47,.4,.83,.92,1.05,1.49,.22,.58,.3,1.2,.23,1.81-.07,.61-.29,1.2-.65,1.71-.73,1.01-1.53,1.96-2.4,2.84-.47,.49-.97,.96-1.49,1.4l.15,.25h4.64Z"/>
        <path class="cls-7" d="M749.8,226.79c0,7.94-2.36,15.71-6.77,22.31-4.42,6.6-10.69,11.75-18.04,14.79-7.34,3.04-15.42,3.83-23.22,2.29-7.79-1.55-14.96-5.37-20.58-10.99-5.62-5.62-9.45-12.77-11-20.56-1.55-7.79-.76-15.86,2.29-23.2,3.04-7.34,8.19-13.61,14.8-18.02,6.61-4.41,14.38-6.77,22.33-6.77,10.66,0,20.88,4.23,28.42,11.76,7.54,7.53,11.77,17.75,11.77,28.4Z"/>
        <path class="cls-7" d="M704.55,186.58h-149.1v49.66h149.1v-49.66Z"/>
        <path class="cls-5" d="M694.22,226.94c0,1.38,1.97,3.84,2.19,4.19,.13,.18,.19,.39,.18,.61-.01,.15,0,.29,.06,.43,.05,.14,.13,.26,.23,.36,.1,.1,.22,.19,.36,.24,.14,.05,.28,.08,.43,.07,.04,.1,.1,.19,.18,.27,.08,.07,.17,.13,.28,.16,.3,.09,.33,0,.43,.39,.03,.13,.1,.25,.19,.35,.1,.1,.22,.16,.35,.19,0,0,.4-.18,.66,.65,.04,.21,.13,.4,.26,.55,.14,.16,.31,.28,.51,.34,.11,.09,.24,.16,.37,.19,.39,0,.31,.12,.31,.12-.01,.05,0,.1,0,.15,.02,.05,.05,.09,.09,.13,.04,.03,.09,.06,.14,.07,.05,.01,.1,0,.15,0,0,0,.55-.12,.62,.3,.07,.42,.33,.94,.62,1.01,.15,0,.29,.04,.43,.11,.13,.07,.25,.16,.35,.28,.23,.24,.55,.38,.88,.4,.34,.09,.28,0,.28,0l.37,.28s0-.12,.09,0c.09,.12,.46,.36,.46,.36,.18,.34,.49,.3,.61,.36,.3,.07,.61,.1,.92,.1,0,0,.08-.12,.77,.15,.48,.17,.99,.23,1.49,.18,1.09-.3,.74-1,.67-1.13-.43-.26-.89-.47-1.37-.64-.54-.21-1.04-.5-1.49-.86-.54-.43-1.1-.82-1.68-1.18-.33-.21-.63-.47-.88-.77-.12-.2-.3-.37-.52-.46-.34-.28-.62-.63-.83-1.01-.34-.64-1.74-2.97-1.74-2.97,0,0,3.5-.33,4.29-.33s6.41-.74,6.79-.82c.96-.2,1.9-.45,2.83-.76,.71-.27,2.1-.64,2.8-.91,.79-.25,1.61-.41,2.44-.48,.79-.12,2.1,0,2.69-.18,.59-.17,1.2-.21,1.8-.12,.51,.19,1.04,.35,1.58,.46,.22,0,2.2,.22,3.16,.27,.95,.04,.62,.12,.62,.12,0,0-.77,.76-.91,.86-.39,.35-.73,.75-1.01,1.19-.39,.71-.6,1.5-.62,2.31,0,.66,.17,1.32,.51,1.89,.14,.36,.34,.68,.59,.97,0,0,.15,.25,.13-.09-.02-.2-.02-.41,0-.61,0-.1,.13-.33,.24-.28,.1,.04,.13,0,.13,0,.09-.39,.12-.22,.27-.4,.15-.18,.1-.31,.28-.57,.18-.25,.24-.21,.39-.42,.15-.21,.28-.25,.37-.25s.4,0,.45-.07c.02-.04,.06-.08,.1-.1,.04-.03,.08-.05,.13-.06,0,0,.09,.19,.31,0,.22-.19,.34-.1,.39-.07,.07,.03,.14,.05,.22,.05s.15-.02,.22-.05c.27,0,.19,0,.19,0,.31,.1,.33,0,.33,0,.46-.21,.34-1.25,.4-1.12,.14,.27,.36,.5,.64,.64,.23,.12,.41,.32,.52,.55,.27,.7,.52,.74,.55,.79,.03,.04,.16,.27,.3,.27s.3,0,.34,.09c.04,.09,0,.3,.13,.34,.08,.02,.17,.02,.25,0v.28c0,.11,.25,0,.25,0,0,0,0,.12,.07,.13h.13s.09,.09,.09,.13,.13,.09,.19,.07c.06-.01,.18,.13,.18,.13v.25h.21s.1,0,.1,.13v.13l.15,.07,.09,.27s.18,0,.15,.1c-.03,.1,.18,.28,.18,.28l.21,.1s.09,.09,.09,.15,.27,0,.27,0c.12,.17,.29,.29,.49,.34,0,0,.21,.18,.21,.22-.01,.15-.01,.3,0,.45,0,.12,.15,0,.15,0-.24-2.45-1.45-4.71-3.35-6.28-.46-.31-2.75-2.38-2.98-2.51-.22-.13-.16-.18-.16-.18-.37-1.2-1.05-2.28-1.96-3.14-.46-.42-.96-.8-1.49-1.13-.33-.13-.25-.09-.43-.31-.23-.24-.52-.43-.83-.53-.27-.09-.27-.22-.45-.31-.18-.09-.25-.33-.48-.37-.21-.06-.41-.14-.6-.25,0,0,0-.18-.18-.31-.1-.09-.22-.14-.36-.15-.1-.09-.22-.15-.34-.18-.25-.1-.46-.27-.62-.48-.09-.13-.3-.21-.62-.3-.33-.09-.24-.12-.24-.12-.2-.09-.39-.2-.57-.33-.14-.11-.29-.2-.46-.27-.31-.05-.6-.19-.83-.4-.3-.24-2.13-1.15-2.71-1.49-.58-.34-1.37-.77-1.62-.85-.25-.07,0-.37,0-.43,.14-.14,.29-.26,.45-.36,.02-.02,.04-.05,.06-.08,.01-.03,.02-.06,.02-.09s0-.07-.02-.1c-.01-.03-.03-.06-.06-.08-.09-.08-.19-.12-.51-.08-.31,.04-1.4,.3-1.98,.42-.72,.08-1.44,.11-2.16,.07-.49-.02-.97,.11-1.38,.36-.24,.17-.52,.29-.8,.36-.25,.08-.51,.13-.77,.15-1.07,0-.42,0-2.44,.18-2.02,.18-3.78,.51-4.47,.61-.68,.1-4.47,.95-4.75,.98-.28,.03-4.32,.98-4.32,.98,0,0-2.98,.61-3.94,.77-.53,.11-1.07,.13-1.61,.07-.16,0-.68-.15-.92-.15s-.13,0-.88,.45c-.9,.44-1.82,.83-2.77,1.16-.21,.05-.42,.07-.64,.07-.13,.02-.25,.09-.33,.19-.16,.1-.34,.17-.52,.21,0,0-.43,.18-.77,.28-.2,.04-.4,.1-.6,.16h-.46s-.12,.18-.25,.19c-.14,.04-.28,.09-.42,.15l-.31,.1c-.13,.04-.25,.08-.37,.13-.12,.03-.23,.08-.34,.13-.06,.02-.12,.04-.18,.04s-.12-.01-.18-.04c-.09-.03-.18-.03-.27,0-.09,0,0,.13,0,.18s-.24,.16-.24,.16c-.12,.03-.23,.08-.33,.16-.08,.05-.17,.09-.27,.1-.09,.01-.19,0-.28-.01-.19,0-.22,.09-.22,.09,0,0-.37,.22-.57,.31-.19,.09-.64,.25-.64,.25-.13,.03-.24,.1-.33,.19-.09,.09-.16,.21-.19,.33,0,0-.21,.48-.09,.67"/>
        <path class="cls-5" d="M9.57,204l3.28-7.33h-4.5v-1.34h6.25v1.05l-3.37,7.62h-1.66Zm5.88-4.33c0-2.18,1.04-4.47,3.47-4.47s3.47,2.29,3.47,4.47-1.04,4.49-3.47,4.49-3.47-2.3-3.47-4.49Zm5.4,0c0-1.65-.51-3.12-1.92-3.12s-1.92,1.47-1.92,3.12,.51,3.13,1.92,3.13,1.92-1.48,1.92-3.13Zm2.45-2.3c0-1.22,.86-2.17,2.15-2.17s2.17,.95,2.17,2.17-.87,2.13-2.17,2.13-2.15-.92-2.15-2.13Zm1.31,6.63l5.54-8.67h.87l-5.55,8.67h-.86Zm1.99-6.63c0-.78-.48-1.3-1.16-1.3s-1.14,.52-1.14,1.3,.48,1.27,1.14,1.27,1.16-.53,1.16-1.27Zm1.36,4.65c0-1.22,.86-2.17,2.15-2.17s2.16,.95,2.16,2.17-.87,2.13-2.16,2.13-2.15-.92-2.15-2.13Zm3.3,0c0-.78-.48-1.3-1.16-1.3s-1.14,.52-1.14,1.3,.47,1.27,1.14,1.27,1.16-.52,1.16-1.27Zm10.01,1.98v-.86c-.48,.62-1.21,1.01-2.01,1.01-1.61,0-2.8-1.22-2.8-3.29s1.17-3.3,2.8-3.3c.78,0,1.51,.36,2.01,1.03v-3.26h1.36v8.67h-1.36Zm0-1.88v-2.5c-.31-.47-.98-.85-1.62-.85-1.08,0-1.77,.87-1.77,2.09s.69,2.08,1.77,2.08c.65,0,1.31-.36,1.62-.83Zm2.74-1.26c0-1.82,1.33-3.29,3.19-3.29s3.09,1.44,3.09,3.42v.33h-4.85c.1,.95,.82,1.73,2,1.73,.61,0,1.34-.25,1.78-.69l.62,.9c-.62,.6-1.55,.91-2.55,.91-1.89,0-3.29-1.31-3.29-3.3Zm3.19-2.17c-1.17,0-1.7,.9-1.77,1.66h3.54c-.03-.74-.53-1.66-1.77-1.66Zm7.78,5.32v-8.67h1.36v8.67h-1.36Zm6.97,0v-.68c-.47,.53-1.2,.83-2.03,.83-1.03,0-2.18-.69-2.18-2.08s1.16-2.04,2.18-2.04c.84,0,1.57,.27,2.03,.81v-.94c0-.73-.6-1.17-1.47-1.17-.7,0-1.31,.26-1.86,.79l-.56-.95c.73-.69,1.64-1.01,2.64-1.01,1.39,0,2.61,.58,2.61,2.27v4.16h-1.36Zm0-1.43v-.95c-.31-.43-.9-.65-1.49-.65-.77,0-1.34,.44-1.34,1.13s.57,1.12,1.34,1.12c.6,0,1.18-.22,1.49-.65Zm5.93,.61l.62-.99c.44,.46,1.31,.88,2.13,.88s1.24-.3,1.24-.77c0-.55-.66-.74-1.43-.91-1.08-.23-2.37-.52-2.37-1.92,0-1.03,.88-1.91,2.47-1.91,1.07,0,1.87,.38,2.44,.88l-.57,.96c-.38-.43-1.08-.75-1.86-.75-.71,0-1.17,.26-1.17,.7,0,.48,.62,.65,1.36,.82,1.09,.23,2.43,.55,2.43,2.03,0,1.11-.92,1.95-2.61,1.95-1.07,0-2.04-.34-2.69-.98Zm10.92,.82v-.83c-.46,.51-1.24,.99-2.22,.99-1.35,0-2.01-.7-2.01-1.99v-4.45h1.36v3.95c0,.97,.49,1.27,1.26,1.27,.69,0,1.29-.39,1.61-.82v-4.41h1.36v6.28h-1.36Zm4.5,2.39h-1.36v-8.67h1.36v.86c.47-.62,1.2-1.01,2.01-1.01,1.62,0,2.78,1.22,2.78,3.29s-1.16,3.3-2.78,3.3c-.79,0-1.51-.35-2.01-1.03v3.26Zm3.38-5.54c0-1.21-.69-2.08-1.77-2.08-.64,0-1.31,.38-1.61,.85v2.48c.3,.46,.97,.85,1.61,.85,1.08,0,1.77-.87,1.77-2.09Zm2.41,0c0-1.82,1.33-3.29,3.18-3.29s3.09,1.44,3.09,3.42v.33h-4.85c.1,.95,.82,1.73,2,1.73,.61,0,1.34-.25,1.78-.69l.62,.9c-.62,.6-1.55,.91-2.55,.91-1.89,0-3.29-1.31-3.29-3.3Zm3.18-2.17c-1.17,0-1.7,.9-1.77,1.66h3.54c-.03-.74-.53-1.66-1.77-1.66Zm4.44,5.32v-6.28h1.37v.92c.47-.6,1.22-1.07,2.04-1.07v1.35c-.12-.03-.26-.04-.43-.04-.57,0-1.34,.39-1.61,.83v4.28h-1.37Zm9.19-7.32c-.46,0-.85-.38-.85-.85s.39-.85,.85-.85,.84,.38,.84,.85-.38,.85-.84,.85Zm-4.36,7.32v-5.08h-1.04v-1.2h1.04v-.35c0-1.4,.83-2.17,1.99-2.17,.43,0,.82,.09,1.09,.25l-.3,1.01c-.13-.09-.31-.14-.55-.14-.53,0-.87,.35-.87,1.05v.35h1.27v1.2h-1.27v5.08h-1.36Zm3.68,0v-6.28h1.36v6.28h-1.36Zm2.74-3.15c0-1.9,1.34-3.29,3.25-3.29,1.22,0,1.96,.52,2.4,1.12l-.9,.83c-.35-.49-.83-.74-1.44-.74-1.14,0-1.9,.86-1.9,2.08s.75,2.09,1.9,2.09c.61,0,1.09-.26,1.44-.74l.9,.83c-.44,.6-1.18,1.12-2.4,1.12-1.91,0-3.25-1.39-3.25-3.3Zm7.53-4.17c-.45,0-.85-.38-.85-.85s.39-.85,.85-.85,.85,.38,.85,.85-.38,.85-.85,.85Zm-.68,7.32v-6.28h1.36v6.28h-1.36Zm2.74-3.15c0-1.82,1.33-3.29,3.19-3.29s3.09,1.44,3.09,3.42v.33h-4.85c.1,.95,.82,1.73,2,1.73,.61,0,1.34-.25,1.78-.69l.62,.9c-.62,.6-1.55,.91-2.55,.91-1.89,0-3.29-1.31-3.29-3.3Zm3.19-2.17c-1.17,0-1.7,.9-1.77,1.66h3.54c-.03-.74-.53-1.66-1.77-1.66ZM10.77,217.16c-1.05,0-1.61-.57-1.61-1.61v-3.63h-1.04v-1.2h1.04v-1.72h1.37v1.72h1.27v1.2h-1.27v3.29c0,.43,.21,.74,.6,.74,.26,0,.51-.1,.61-.22l.32,1.03c-.25,.23-.65,.4-1.29,.4Zm1.88-3.3c0-1.82,1.33-3.29,3.19-3.29s3.09,1.44,3.09,3.42v.33h-4.85c.1,.95,.82,1.73,2,1.73,.61,0,1.34-.25,1.78-.69l.62,.9c-.62,.6-1.55,.91-2.55,.91-1.88,0-3.29-1.31-3.29-3.3Zm3.19-2.17c-1.17,0-1.7,.9-1.77,1.66h3.54c-.03-.74-.53-1.66-1.77-1.66Zm4.44,5.32v-6.28h1.36v.92c.47-.6,1.22-1.07,2.04-1.07v1.35c-.12-.03-.26-.04-.43-.04-.57,0-1.34,.39-1.61,.83v4.28h-1.36Zm4.51,0v-6.28h1.36v.92c.47-.6,1.22-1.07,2.04-1.07v1.35c-.12-.03-.26-.04-.43-.04-.57,0-1.34,.39-1.61,.83v4.28h-1.36Zm4.12-3.15c0-1.82,1.33-3.29,3.18-3.29s3.09,1.44,3.09,3.42v.33h-4.85c.1,.95,.82,1.73,2,1.73,.61,0,1.34-.25,1.78-.69l.62,.9c-.62,.6-1.55,.91-2.55,.91-1.88,0-3.29-1.31-3.29-3.3Zm3.18-2.17c-1.17,0-1.7,.9-1.77,1.66h3.54c-.03-.74-.53-1.66-1.77-1.66Zm3.9,4.5l.62-.99c.44,.46,1.31,.88,2.13,.88s1.24-.3,1.24-.77c0-.55-.66-.74-1.43-.91-1.08-.23-2.37-.52-2.37-1.92,0-1.03,.88-1.91,2.47-1.91,1.07,0,1.87,.38,2.44,.88l-.57,.96c-.38-.43-1.08-.75-1.86-.75-.72,0-1.17,.26-1.17,.7,0,.48,.62,.65,1.37,.82,1.09,.23,2.43,.55,2.43,2.03,0,1.11-.92,1.95-2.61,1.95-1.07,0-2.04-.34-2.69-.98Zm8.56,.98c-1.05,0-1.61-.57-1.61-1.61v-3.63h-1.04v-1.2h1.04v-1.72h1.37v1.72h1.27v1.2h-1.27v3.29c0,.43,.21,.74,.6,.74,.26,0,.51-.1,.61-.22l.33,1.03c-.25,.23-.65,.4-1.29,.4Zm2.27-.16v-6.28h1.36v.92c.47-.6,1.22-1.07,2.04-1.07v1.35c-.12-.03-.26-.04-.43-.04-.57,0-1.34,.39-1.61,.83v4.28h-1.36Zm4.12-3.15c0-1.82,1.33-3.29,3.19-3.29s3.09,1.44,3.09,3.42v.33h-4.85c.1,.95,.82,1.73,2,1.73,.61,0,1.34-.25,1.78-.69l.62,.9c-.62,.6-1.55,.91-2.55,.91-1.89,0-3.29-1.31-3.29-3.3Zm3.19-2.17c-1.17,0-1.7,.9-1.77,1.66h3.54c-.03-.74-.53-1.66-1.77-1.66Zm7.39,2.17c0-1.82,1.33-3.29,3.19-3.29s3.09,1.44,3.09,3.42v.33h-4.85c.1,.95,.82,1.73,2,1.73,.61,0,1.34-.25,1.78-.69l.62,.9c-.62,.6-1.55,.91-2.55,.91-1.88,0-3.29-1.31-3.29-3.3Zm3.19-2.17c-1.17,0-1.7,.9-1.77,1.66h3.54c-.03-.74-.53-1.66-1.77-1.66Zm3.9,4.5l.62-.99c.44,.46,1.31,.88,2.13,.88s1.24-.3,1.24-.77c0-.55-.66-.74-1.43-.91-1.08-.23-2.37-.52-2.37-1.92,0-1.03,.88-1.91,2.47-1.91,1.07,0,1.87,.38,2.44,.88l-.57,.96c-.38-.43-1.08-.75-1.86-.75-.72,0-1.17,.26-1.17,.7,0,.48,.62,.65,1.37,.82,1.09,.23,2.43,.55,2.43,2.03,0,1.11-.92,1.95-2.61,1.95-1.07,0-2.04-.34-2.69-.98Zm8.56,.98c-1.05,0-1.61-.57-1.61-1.61v-3.63h-1.04v-1.2h1.04v-1.72h1.36v1.72h1.27v1.2h-1.27v3.29c0,.43,.21,.74,.6,.74,.26,0,.51-.1,.61-.22l.33,1.03c-.25,.23-.65,.4-1.29,.4Zm5.31-7.38h-.97l1.82-1.87h1.3l-2.14,1.87Zm.79,7.23v-.68c-.47,.53-1.2,.83-2.03,.83-1.03,0-2.18-.69-2.18-2.08s1.16-2.04,2.18-2.04c.85,0,1.57,.27,2.03,.81v-.94c0-.73-.6-1.17-1.47-1.17-.7,0-1.31,.26-1.86,.79l-.56-.95c.73-.69,1.64-1.01,2.64-1.01,1.39,0,2.61,.58,2.61,2.27v4.16h-1.36Zm0-1.43v-.95c-.31-.43-.9-.65-1.5-.65-.77,0-1.34,.44-1.34,1.13s.57,1.12,1.34,1.12c.6,0,1.18-.22,1.5-.65Zm6.08-1.72c0-1.9,1.34-3.29,3.25-3.29,1.22,0,1.96,.52,2.4,1.12l-.9,.83c-.35-.49-.83-.74-1.44-.74-1.14,0-1.9,.86-1.9,2.08s.75,2.09,1.9,2.09c.61,0,1.09-.26,1.44-.74l.9,.83c-.44,.6-1.18,1.12-2.4,1.12-1.91,0-3.25-1.39-3.25-3.3Zm11.09,3.15v-.83c-.46,.51-1.24,.99-2.22,.99-1.35,0-2.01-.7-2.01-1.99v-4.45h1.36v3.95c0,.97,.49,1.27,1.26,1.27,.69,0,1.29-.39,1.61-.82v-4.41h1.36v6.28h-1.36Zm3.14,0v-8.67h1.36v3.26c.49-.66,1.22-1.03,2.01-1.03,1.61,0,2.78,1.27,2.78,3.3s-1.18,3.29-2.78,3.29c-.82,0-1.53-.39-2.01-1.01v.86h-1.36Zm1.36-1.88c.3,.47,.97,.83,1.61,.83,1.09,0,1.78-.86,1.78-2.08s-.69-2.09-1.78-2.09c-.64,0-1.31,.39-1.61,.86v2.48Zm6.86-5.43c-.45,0-.84-.38-.84-.85s.39-.85,.84-.85,.85,.38,.85,.85-.38,.85-.85,.85Zm-.68,7.32v-6.28h1.36v6.28h-1.36Zm2.74-3.15c0-1.82,1.33-3.29,3.19-3.29s3.09,1.44,3.09,3.42v.33h-4.85c.1,.95,.82,1.73,2,1.73,.61,0,1.34-.25,1.78-.69l.62,.9c-.62,.6-1.55,.91-2.55,.91-1.89,0-3.29-1.31-3.29-3.3Zm3.19-2.17c-1.17,0-1.7,.9-1.77,1.66h3.54c-.03-.74-.53-1.66-1.77-1.66Zm4.44,5.32v-6.28h1.37v.92c.47-.6,1.22-1.07,2.04-1.07v1.35c-.12-.03-.26-.04-.43-.04-.57,0-1.34,.39-1.61,.83v4.28h-1.37Zm6.39,.16c-1.05,0-1.61-.57-1.61-1.61v-3.63h-1.04v-1.2h1.04v-1.72h1.36v1.72h1.27v1.2h-1.27v3.29c0,.43,.21,.74,.6,.74,.26,0,.51-.1,.61-.22l.33,1.03c-.25,.23-.65,.4-1.29,.4Zm6.1-.16v-.68c-.47,.53-1.2,.83-2.03,.83-1.03,0-2.18-.69-2.18-2.08s1.16-2.04,2.18-2.04c.85,0,1.57,.27,2.03,.81v-.94c0-.73-.6-1.17-1.47-1.17-.7,0-1.31,.26-1.86,.79l-.56-.95c.73-.69,1.64-1.01,2.64-1.01,1.39,0,2.61,.58,2.61,2.27v4.16h-1.37Zm0-1.43v-.95c-.31-.43-.9-.65-1.49-.65-.77,0-1.34,.44-1.34,1.13s.57,1.12,1.34,1.12c.6,0,1.18-.22,1.49-.65ZM10.25,232.39h-1.36v-8.67h1.36v.86c.47-.62,1.2-1.01,2.02-1.01,1.62,0,2.78,1.22,2.78,3.29s-1.16,3.3-2.78,3.3c-.79,0-1.51-.35-2.02-1.03v3.26Zm3.38-5.54c0-1.21-.69-2.08-1.77-2.08-.64,0-1.31,.38-1.61,.85v2.48c.3,.46,.98,.85,1.61,.85,1.08,0,1.77-.87,1.77-2.09Zm5.63,3.3c-1.99,0-3.22-1.5-3.22-3.3s1.24-3.29,3.22-3.29,3.24,1.49,3.24,3.29-1.22,3.3-3.24,3.3Zm0-1.21c1.17,0,1.82-.98,1.82-2.09s-.65-2.08-1.82-2.08-1.81,.97-1.81,2.08,.65,2.09,1.81,2.09Zm4.62,1.05v-6.28h1.37v.92c.47-.6,1.22-1.07,2.04-1.07v1.35c-.12-.03-.26-.04-.43-.04-.57,0-1.34,.39-1.61,.83v4.28h-1.37Zm10.68,.16c-1.99,0-3.22-1.5-3.22-3.3s1.24-3.29,3.22-3.29,3.24,1.49,3.24,3.29-1.22,3.3-3.24,3.3Zm0-1.21c1.17,0,1.82-.98,1.82-2.09s-.65-2.08-1.82-2.08-1.81,.97-1.81,2.08,.65,2.09,1.81,2.09Zm4.23-2.09c0-1.9,1.34-3.29,3.25-3.29,1.22,0,1.96,.52,2.4,1.12l-.9,.83c-.35-.49-.83-.74-1.44-.74-1.14,0-1.9,.86-1.9,2.08s.75,2.09,1.9,2.09c.61,0,1.09-.26,1.44-.74l.9,.83c-.44,.6-1.18,1.12-2.4,1.12-1.91,0-3.25-1.39-3.25-3.3Zm10.09-4.08h-.98l1.82-1.87h1.3l-2.15,1.87Zm-3.63,4.08c0-1.82,1.33-3.29,3.19-3.29s3.09,1.44,3.09,3.42v.33h-4.85c.1,.95,.82,1.73,2,1.73,.61,0,1.34-.25,1.78-.69l.62,.9c-.62,.6-1.55,.91-2.55,.91-1.88,0-3.29-1.31-3.29-3.3Zm3.19-2.17c-1.17,0-1.7,.9-1.77,1.66h3.54c-.03-.74-.53-1.66-1.77-1.66Zm8.28,5.32v-.68c-.47,.53-1.2,.83-2.03,.83-1.03,0-2.18-.69-2.18-2.08s1.16-2.04,2.18-2.04c.84,0,1.57,.27,2.03,.81v-.94c0-.73-.6-1.17-1.47-1.17-.7,0-1.31,.26-1.86,.79l-.56-.95c.73-.69,1.64-1.01,2.64-1.01,1.39,0,2.61,.58,2.61,2.27v4.16h-1.36Zm0-1.43v-.95c-.31-.43-.9-.65-1.5-.65-.77,0-1.34,.44-1.34,1.13s.57,1.12,1.34,1.12c.6,0,1.18-.22,1.5-.65Zm7.37,1.43v-3.93c0-.98-.49-1.3-1.26-1.3-.7,0-1.3,.42-1.61,.85v4.38h-1.37v-6.28h1.37v.86c.42-.49,1.22-1.01,2.21-1.01,1.35,0,2.03,.73,2.03,2.01v4.42h-1.36Zm5.97,.16c-1.99,0-3.22-1.5-3.22-3.3s1.24-3.29,3.22-3.29,3.24,1.49,3.24,3.29-1.22,3.3-3.24,3.3Zm0-1.21c1.17,0,1.82-.98,1.82-2.09s-.65-2.08-1.82-2.08-1.81,.97-1.81,2.08,.65,2.09,1.81,2.09Zm4.07,.23l.62-.99c.44,.46,1.31,.88,2.13,.88s1.23-.3,1.23-.77c0-.55-.66-.74-1.43-.91-1.08-.23-2.37-.52-2.37-1.92,0-1.03,.88-1.91,2.47-1.91,1.07,0,1.87,.38,2.44,.88l-.57,.96c-.38-.43-1.08-.75-1.86-.75-.72,0-1.17,.26-1.17,.7,0,.48,.62,.65,1.36,.82,1.09,.23,2.43,.55,2.43,2.03,0,1.11-.92,1.95-2.61,1.95-1.07,0-2.04-.34-2.69-.98Z"/>
        <path class="cls-5" d="M289.73,199.82l.87-1.04c.58,.66,1.36,1.03,2.34,1.03,1.09,0,1.78-.68,1.78-1.52,0-.94-.68-1.55-1.74-1.55-.74,0-1.35,.23-1.9,.75l-1.08-.31v-4.85h5.68v1.34h-4.16v2.51c.42-.42,1.13-.75,1.96-.75,1.46,0,2.77,1.03,2.77,2.79s-1.36,2.94-3.3,2.94c-1.49,0-2.52-.51-3.22-1.34Zm7.6-3.15c0-2.18,1.04-4.47,3.47-4.47s3.47,2.29,3.47,4.47-1.04,4.49-3.47,4.49-3.47-2.3-3.47-4.49Zm5.39,0c0-1.65-.51-3.12-1.92-3.12s-1.92,1.47-1.92,3.12,.51,3.13,1.92,3.13,1.92-1.48,1.92-3.13Zm2.45-2.3c0-1.22,.86-2.17,2.14-2.17s2.17,.95,2.17,2.17-.87,2.13-2.17,2.13-2.14-.92-2.14-2.13Zm1.31,6.63l5.54-8.67h.87l-5.55,8.67h-.86Zm1.99-6.63c0-.78-.48-1.3-1.16-1.3s-1.14,.52-1.14,1.3,.48,1.27,1.14,1.27,1.16-.53,1.16-1.27Zm1.37,4.65c0-1.22,.86-2.17,2.14-2.17s2.16,.95,2.16,2.17-.87,2.13-2.16,2.13-2.14-.92-2.14-2.13Zm3.3,0c0-.78-.48-1.3-1.16-1.3s-1.14,.52-1.14,1.3,.47,1.27,1.14,1.27,1.16-.52,1.16-1.27Zm10.01,1.98v-.86c-.48,.62-1.21,1.01-2.02,1.01-1.61,0-2.79-1.22-2.79-3.29s1.17-3.3,2.79-3.3c.78,0,1.51,.36,2.02,1.03v-3.26h1.36v8.67h-1.36Zm0-1.88v-2.5c-.31-.47-.98-.85-1.62-.85-1.08,0-1.77,.87-1.77,2.09s.69,2.08,1.77,2.08c.65,0,1.31-.36,1.62-.83Zm2.74-1.26c0-1.82,1.33-3.29,3.18-3.29s3.09,1.44,3.09,3.42v.33h-4.85c.1,.95,.82,1.73,2,1.73,.61,0,1.34-.25,1.78-.69l.62,.9c-.62,.6-1.55,.91-2.55,.91-1.88,0-3.29-1.31-3.29-3.3Zm3.18-2.17c-1.17,0-1.7,.9-1.77,1.66h3.54c-.03-.74-.53-1.66-1.77-1.66Zm4.44,5.32v-8.67h1.36v8.67h-1.36Zm9.31,.16c-1.99,0-3.22-1.5-3.22-3.3s1.24-3.29,3.22-3.29,3.24,1.49,3.24,3.29-1.22,3.3-3.24,3.3Zm0-1.21c1.17,0,1.82-.98,1.82-2.09s-.65-2.08-1.82-2.08-1.81,.97-1.81,2.08,.65,2.09,1.81,2.09Zm8.25,1.05l-1.62-2.31-1.64,2.31h-1.52l2.3-3.22-2.17-3.06h1.53l1.49,2.13,1.48-2.13h1.53l-2.17,3.06,2.31,3.22h-1.53Zm3.6-7.23h-.98l1.82-1.87h1.3l-2.14,1.87Zm-1.12,7.23v-6.28h1.36v6.28h-1.36Zm3.06,1.61l.64-.99c.51,.59,1.16,.81,1.99,.81,.9,0,1.86-.42,1.86-1.7v-.75c-.48,.62-1.2,1.04-2.01,1.04-1.6,0-2.78-1.16-2.78-3.22s1.17-3.22,2.78-3.22c.79,0,1.51,.36,2.01,1.03v-.87h1.37v5.95c0,2.26-1.68,2.87-3.22,2.87-1.07,0-1.86-.23-2.63-.94Zm4.48-3.65v-2.34c-.3-.47-.97-.85-1.61-.85-1.08,0-1.77,.81-1.77,2.01s.69,2.01,1.77,2.01c.64,0,1.31-.38,1.61-.85Zm2.74-1.1c0-1.82,1.33-3.29,3.18-3.29s3.09,1.44,3.09,3.42v.33h-4.85c.1,.95,.82,1.73,2,1.73,.61,0,1.34-.25,1.78-.69l.62,.9c-.62,.6-1.55,.91-2.55,.91-1.89,0-3.29-1.31-3.29-3.3Zm3.18-2.17c-1.17,0-1.7,.9-1.77,1.66h3.54c-.03-.74-.53-1.66-1.77-1.66Zm8.68,5.32v-3.93c0-.98-.49-1.3-1.26-1.3-.7,0-1.3,.42-1.61,.85v4.38h-1.37v-6.28h1.37v.86c.42-.49,1.22-1.01,2.21-1.01,1.35,0,2.03,.73,2.03,2.01v4.42h-1.36Zm5.97,.16c-1.99,0-3.22-1.5-3.22-3.3s1.23-3.29,3.22-3.29,3.24,1.49,3.24,3.29-1.22,3.3-3.24,3.3Zm0-1.21c1.17,0,1.82-.98,1.82-2.09s-.65-2.08-1.82-2.08-1.81,.97-1.81,2.08,.65,2.09,1.81,2.09Zm13.73,3.44h-1.36v-3.26c-.51,.68-1.22,1.03-2.01,1.03-1.62,0-2.78-1.24-2.78-3.3s1.16-3.29,2.78-3.29c.82,0,1.55,.39,2.01,1.01v-.86h1.36v8.67Zm-1.36-4.29v-2.48c-.3-.47-.98-.85-1.61-.85-1.08,0-1.77,.87-1.77,2.08s.69,2.09,1.77,2.09c.64,0,1.31-.39,1.61-.85Zm7.37,1.9v-.83c-.46,.51-1.24,.99-2.22,.99-1.35,0-2.02-.7-2.02-1.99v-4.45h1.36v3.95c0,.97,.49,1.27,1.26,1.27,.69,0,1.29-.39,1.61-.82v-4.41h1.36v6.28h-1.36Zm2.75-3.15c0-1.82,1.33-3.29,3.18-3.29s3.09,1.44,3.09,3.42v.33h-4.85c.1,.95,.82,1.73,2,1.73,.61,0,1.34-.25,1.78-.69l.62,.9c-.62,.6-1.55,.91-2.55,.91-1.88,0-3.29-1.31-3.29-3.3Zm3.18-2.17c-1.17,0-1.7,.9-1.77,1.66h3.54c-.03-.74-.53-1.66-1.77-1.66Zm-117.47,18.32v-6.28h1.36v.92c.47-.6,1.22-1.07,2.04-1.07v1.35c-.12-.03-.26-.04-.43-.04-.57,0-1.34,.39-1.61,.83v4.28h-1.36Zm4.12-3.15c0-1.82,1.33-3.29,3.18-3.29s3.09,1.44,3.09,3.42v.33h-4.85c.1,.95,.82,1.73,2,1.73,.61,0,1.34-.25,1.78-.69l.62,.9c-.62,.6-1.55,.91-2.55,.91-1.89,0-3.29-1.31-3.29-3.3Zm3.18-2.17c-1.17,0-1.7,.9-1.77,1.66h3.54c-.03-.74-.53-1.66-1.77-1.66Zm3.89,4.5l.62-.99c.44,.46,1.31,.88,2.13,.88s1.23-.3,1.23-.77c0-.55-.66-.74-1.43-.91-1.08-.23-2.37-.52-2.37-1.92,0-1.03,.88-1.91,2.47-1.91,1.07,0,1.87,.38,2.44,.88l-.57,.96c-.38-.43-1.08-.75-1.86-.75-.71,0-1.17,.26-1.17,.7,0,.48,.62,.65,1.37,.82,1.09,.23,2.43,.55,2.43,2.03,0,1.11-.92,1.95-2.61,1.95-1.07,0-2.04-.34-2.69-.98Zm8.04,3.21h-1.36v-8.67h1.36v.86c.47-.62,1.2-1.01,2.02-1.01,1.62,0,2.78,1.22,2.78,3.29s-1.16,3.3-2.78,3.3c-.79,0-1.51-.35-2.02-1.03v3.26Zm3.38-5.54c0-1.21-.69-2.08-1.77-2.08-.64,0-1.31,.38-1.61,.85v2.48c.3,.46,.98,.85,1.61,.85,1.08,0,1.77-.87,1.77-2.09Zm3.47-4.17c-.46,0-.85-.38-.85-.85s.39-.85,.85-.85,.85,.38,.85,.85-.38,.85-.85,.85Zm-.68,7.32v-6.28h1.37v6.28h-1.37Zm3.14,0v-6.28h1.36v.92c.47-.6,1.22-1.07,2.04-1.07v1.35c-.12-.03-.26-.04-.43-.04-.57,0-1.34,.39-1.61,.83v4.28h-1.36Zm8.34,0v-.68c-.47,.53-1.2,.83-2.03,.83-1.03,0-2.18-.69-2.18-2.08s1.16-2.04,2.18-2.04c.85,0,1.57,.27,2.03,.81v-.94c0-.73-.6-1.17-1.47-1.17-.7,0-1.31,.26-1.86,.79l-.56-.95c.73-.69,1.64-1.01,2.64-1.01,1.39,0,2.61,.58,2.61,2.27v4.16h-1.36Zm0-1.43v-.95c-.31-.43-.9-.65-1.5-.65-.77,0-1.34,.44-1.34,1.13s.57,1.12,1.34,1.12c.6,0,1.18-.22,1.5-.65Zm10.83,1.43v-4.1c0-.68-.3-1.13-1.03-1.13-.61,0-1.18,.43-1.46,.83v4.39h-1.36v-4.1c0-.68-.3-1.13-1.04-1.13-.6,0-1.16,.43-1.44,.85v4.38h-1.37v-6.28h1.37v.86c.26-.39,1.09-1.01,2.04-1.01s1.51,.47,1.72,1.16c.36-.57,1.2-1.16,2.13-1.16,1.16,0,1.81,.62,1.81,1.9v4.54h-1.36Zm5.97,.16c-1.99,0-3.22-1.5-3.22-3.3s1.23-3.29,3.22-3.29,3.24,1.49,3.24,3.29-1.22,3.3-3.24,3.3Zm0-1.21c1.17,0,1.82-.98,1.82-2.09s-.65-2.08-1.82-2.08-1.81,.97-1.81,2.08,.65,2.09,1.81,2.09Zm4.07,.23l.62-.99c.44,.46,1.31,.88,2.13,.88s1.24-.3,1.24-.77c0-.55-.66-.74-1.43-.91-1.08-.23-2.37-.52-2.37-1.92,0-1.03,.88-1.91,2.47-1.91,1.07,0,1.87,.38,2.44,.88l-.57,.96c-.38-.43-1.08-.75-1.86-.75-.71,0-1.17,.26-1.17,.7,0,.48,.62,.65,1.36,.82,1.09,.23,2.43,.55,2.43,2.03,0,1.11-.92,1.95-2.61,1.95-1.07,0-2.04-.34-2.69-.98Zm11.67,.82l-2.56-6.28h1.46l1.83,4.71,1.83-4.71h1.47l-2.56,6.28h-1.47Zm5.56-7.32c-.45,0-.85-.38-.85-.85s.39-.85,.85-.85,.85,.38,.85,.85-.38,.85-.85,.85Zm-.68,7.32v-6.28h1.36v6.28h-1.36Zm2.75-3.15c0-1.82,1.33-3.29,3.18-3.29s3.09,1.44,3.09,3.42v.33h-4.85c.1,.95,.82,1.73,2,1.73,.61,0,1.34-.25,1.78-.69l.62,.9c-.62,.6-1.55,.91-2.55,.91-1.89,0-3.29-1.31-3.29-3.3Zm3.18-2.17c-1.17,0-1.7,.9-1.77,1.66h3.54c-.03-.74-.53-1.66-1.77-1.66Zm8.68,5.32v-3.93c0-.98-.49-1.3-1.26-1.3-.7,0-1.3,.42-1.61,.85v4.38h-1.36v-6.28h1.36v.86c.42-.49,1.22-1.01,2.21-1.01,1.35,0,2.03,.73,2.03,2.01v4.42h-1.36Zm2.75-3.15c0-1.82,1.33-3.29,3.18-3.29s3.09,1.44,3.09,3.42v.33h-4.85c.1,.95,.82,1.73,2,1.73,.61,0,1.34-.25,1.78-.69l.62,.9c-.62,.6-1.55,.91-2.55,.91-1.89,0-3.29-1.31-3.29-3.3Zm3.18-2.17c-1.17,0-1.7,.9-1.77,1.66h3.54c-.03-.74-.53-1.66-1.77-1.66Zm-90.44,18.32v-.86c-.48,.62-1.21,1.01-2.01,1.01-1.61,0-2.8-1.22-2.8-3.29s1.17-3.3,2.8-3.3c.78,0,1.51,.36,2.01,1.03v-3.26h1.37v8.67h-1.37Zm0-1.88v-2.5c-.31-.47-.97-.85-1.62-.85-1.08,0-1.77,.87-1.77,2.09s.69,2.08,1.77,2.08c.65,0,1.31-.36,1.62-.83Zm2.74-1.26c0-1.82,1.33-3.29,3.18-3.29s3.09,1.44,3.09,3.42v.33h-4.85c.1,.95,.82,1.73,2,1.73,.61,0,1.34-.25,1.78-.69l.62,.9c-.62,.6-1.55,.91-2.55,.91-1.89,0-3.29-1.31-3.29-3.3Zm3.18-2.17c-1.17,0-1.7,.9-1.77,1.66h3.54c-.03-.74-.53-1.66-1.77-1.66Zm4.44,5.32v-8.67h1.36v8.67h-1.36Zm9.31,.16c-1.99,0-3.22-1.5-3.22-3.3s1.23-3.29,3.22-3.29,3.24,1.49,3.24,3.29-1.22,3.3-3.24,3.3Zm0-1.21c1.17,0,1.82-.98,1.82-2.09s-.65-2.08-1.82-2.08-1.81,.97-1.81,2.08,.65,2.09,1.81,2.09Zm4.23-2.09c0-1.9,1.34-3.29,3.25-3.29,1.22,0,1.96,.52,2.4,1.12l-.9,.83c-.35-.49-.83-.74-1.44-.74-1.14,0-1.9,.86-1.9,2.08s.75,2.09,1.9,2.09c.61,0,1.09-.26,1.44-.74l.9,.83c-.44,.6-1.18,1.12-2.4,1.12-1.91,0-3.25-1.39-3.25-3.3Zm10.09-4.08h-.97l1.82-1.87h1.3l-2.15,1.87Zm-3.63,4.08c0-1.82,1.33-3.29,3.18-3.29s3.09,1.44,3.09,3.42v.33h-4.85c.1,.95,.82,1.73,2,1.73,.61,0,1.34-.25,1.78-.69l.62,.9c-.62,.6-1.55,.91-2.55,.91-1.89,0-3.29-1.31-3.29-3.3Zm3.18-2.17c-1.17,0-1.7,.9-1.77,1.66h3.54c-.03-.74-.53-1.66-1.77-1.66Zm8.28,5.32v-.68c-.47,.53-1.2,.83-2.03,.83-1.03,0-2.18-.69-2.18-2.08s1.16-2.04,2.18-2.04c.85,0,1.57,.27,2.03,.81v-.94c0-.73-.6-1.17-1.47-1.17-.7,0-1.31,.26-1.86,.79l-.56-.95c.73-.69,1.64-1.01,2.64-1.01,1.39,0,2.61,.58,2.61,2.27v4.16h-1.36Zm0-1.43v-.95c-.31-.43-.9-.65-1.49-.65-.77,0-1.34,.44-1.34,1.13s.57,1.12,1.34,1.12c.6,0,1.18-.22,1.49-.65Zm7.37,1.43v-3.93c0-.98-.49-1.3-1.26-1.3-.7,0-1.3,.42-1.61,.85v4.38h-1.36v-6.28h1.36v.86c.42-.49,1.22-1.01,2.21-1.01,1.35,0,2.03,.73,2.03,2.01v4.42h-1.37Zm5.97,.16c-1.99,0-3.22-1.5-3.22-3.3s1.23-3.29,3.22-3.29,3.24,1.49,3.24,3.29-1.22,3.3-3.24,3.3Zm0-1.21c1.17,0,1.82-.98,1.82-2.09s-.65-2.08-1.82-2.08-1.81,.97-1.81,2.08,.65,2.09,1.81,2.09Z"/>
        <path class="cls-5" d="M563.55,201.78c0-1.1,.9-1.9,1.95-2.25-.97-.31-1.81-.95-1.81-2.05,0-1.6,1.64-2.27,3.18-2.27s3.18,.68,3.18,2.27c0,1.1-.85,1.74-1.82,2.05,1.05,.35,1.95,1.14,1.95,2.25,0,1.55-1.55,2.38-3.32,2.38s-3.33-.82-3.33-2.38Zm4.97-4.07c0-.73-.72-1.16-1.64-1.16s-1.65,.43-1.65,1.16c0,.82,1.12,1.13,1.65,1.22,.53-.09,1.64-.4,1.64-1.22Zm.14,3.87c0-.9-1.25-1.3-1.78-1.37-.55,.07-1.79,.47-1.79,1.37,0,.75,.81,1.22,1.79,1.22s1.78-.47,1.78-1.22Zm2.61-1.91c0-2.18,1.04-4.47,3.47-4.47s3.47,2.29,3.47,4.47-1.04,4.49-3.47,4.49-3.47-2.3-3.47-4.49Zm5.4,0c0-1.65-.51-3.12-1.92-3.12s-1.92,1.47-1.92,3.12,.51,3.13,1.92,3.13,1.92-1.48,1.92-3.13Zm2.45-2.3c0-1.22,.86-2.17,2.14-2.17s2.17,.95,2.17,2.17-.87,2.13-2.17,2.13-2.14-.92-2.14-2.13Zm1.31,6.63l5.54-8.67h.87l-5.55,8.67h-.86Zm1.99-6.63c0-.78-.48-1.3-1.16-1.3s-1.14,.52-1.14,1.3,.48,1.27,1.14,1.27,1.16-.53,1.16-1.27Zm1.36,4.65c0-1.22,.86-2.17,2.15-2.17s2.16,.95,2.16,2.17-.87,2.13-2.16,2.13-2.15-.92-2.15-2.13Zm3.3,0c0-.78-.48-1.3-1.16-1.3s-1.14,.52-1.14,1.3,.47,1.27,1.14,1.27,1.16-.52,1.16-1.27Zm10.01,1.98v-.86c-.48,.62-1.21,1.01-2.02,1.01-1.61,0-2.79-1.22-2.79-3.29s1.17-3.3,2.79-3.3c.78,0,1.51,.36,2.02,1.03v-3.26h1.36v8.67h-1.36Zm0-1.88v-2.5c-.31-.47-.97-.85-1.62-.85-1.08,0-1.77,.87-1.77,2.09s.69,2.08,1.77,2.08c.65,0,1.31-.36,1.62-.83Zm2.74-1.26c0-1.82,1.33-3.29,3.18-3.29s3.09,1.44,3.09,3.42v.33h-4.85c.1,.95,.82,1.73,2,1.73,.61,0,1.34-.25,1.78-.69l.62,.9c-.62,.6-1.55,.91-2.55,.91-1.89,0-3.29-1.31-3.29-3.3Zm3.18-2.17c-1.17,0-1.7,.9-1.77,1.66h3.54c-.03-.74-.53-1.66-1.77-1.66Zm7.78,5.32v-8.67h1.36v8.67h-1.36Zm5.97,.16c-1.99,0-3.22-1.5-3.22-3.3s1.23-3.29,3.22-3.29,3.24,1.49,3.24,3.29-1.22,3.3-3.24,3.3Zm0-1.21c1.17,0,1.82-.98,1.82-2.09s-.65-2.08-1.82-2.08-1.81,.97-1.81,2.08,.65,2.09,1.81,2.09Zm4.07,.23l.62-.99c.44,.46,1.31,.88,2.13,.88s1.23-.3,1.23-.77c0-.55-.66-.74-1.43-.91-1.08-.23-2.37-.52-2.37-1.92,0-1.03,.88-1.91,2.47-1.91,1.07,0,1.87,.38,2.44,.88l-.57,.96c-.38-.43-1.08-.75-1.86-.75-.72,0-1.17,.26-1.17,.7,0,.48,.62,.65,1.36,.82,1.09,.23,2.43,.55,2.43,2.03,0,1.11-.92,1.95-2.61,1.95-1.07,0-2.04-.34-2.69-.98Zm9.47,0l.62-.99c.44,.46,1.31,.88,2.13,.88s1.23-.3,1.23-.77c0-.55-.66-.74-1.43-.91-1.08-.23-2.37-.52-2.37-1.92,0-1.03,.88-1.91,2.47-1.91,1.07,0,1.87,.38,2.44,.88l-.57,.96c-.38-.43-1.08-.75-1.86-.75-.72,0-1.17,.26-1.17,.7,0,.48,.62,.65,1.36,.82,1.09,.23,2.43,.55,2.43,2.03,0,1.11-.92,1.95-2.61,1.95-1.07,0-2.04-.34-2.69-.98Zm6.29-2.33c0-1.82,1.33-3.29,3.18-3.29s3.09,1.44,3.09,3.42v.33h-4.85c.1,.95,.82,1.73,2,1.73,.61,0,1.34-.25,1.78-.69l.62,.9c-.62,.6-1.55,.91-2.55,.91-1.89,0-3.29-1.31-3.29-3.3Zm3.18-2.17c-1.17,0-1.7,.9-1.77,1.66h3.54c-.03-.74-.53-1.66-1.77-1.66Zm4.44,5.32v-6.28h1.37v.92c.47-.6,1.22-1.07,2.04-1.07v1.35c-.12-.03-.26-.04-.43-.04-.57,0-1.34,.39-1.61,.83v4.28h-1.37Zm4.12-3.15c0-1.82,1.33-3.29,3.18-3.29s3.09,1.44,3.09,3.42v.33h-4.85c.1,.95,.82,1.73,2,1.73,.61,0,1.34-.25,1.78-.69l.62,.9c-.62,.6-1.55,.91-2.55,.91-1.88,0-3.29-1.31-3.29-3.3Zm3.18-2.17c-1.17,0-1.7,.9-1.77,1.66h3.54c-.03-.74-.53-1.66-1.77-1.66Zm3.9,4.5l.62-.99c.44,.46,1.31,.88,2.13,.88s1.24-.3,1.24-.77c0-.55-.66-.74-1.43-.91-1.08-.23-2.37-.52-2.37-1.92,0-1.03,.88-1.91,2.47-1.91,1.07,0,1.87,.38,2.44,.88l-.57,.96c-.38-.43-1.08-.75-1.86-.75-.71,0-1.17,.26-1.17,.7,0,.48,.62,.65,1.36,.82,1.09,.23,2.43,.55,2.43,2.03,0,1.11-.92,1.95-2.61,1.95-1.07,0-2.04-.34-2.69-.98Zm11.67,.82l-2.56-6.28h1.46l1.83,4.71,1.83-4.71h1.47l-2.56,6.28h-1.47Zm5.56-7.32c-.46,0-.85-.38-.85-.85s.39-.85,.85-.85,.84,.38,.84,.85-.38,.85-.84,.85Zm-.68,7.32v-6.28h1.36v6.28h-1.36Zm4.79,0l-2.56-6.28h1.46l1.83,4.71,1.83-4.71h1.47l-2.56,6.28h-1.47Zm7.72,.16c-1.99,0-3.22-1.5-3.22-3.3s1.24-3.29,3.22-3.29,3.24,1.49,3.24,3.29-1.22,3.3-3.24,3.3Zm0-1.21c1.17,0,1.82-.98,1.82-2.09s-.65-2.08-1.82-2.08-1.81,.97-1.81,2.08,.65,2.09,1.81,2.09Zm4.07,.23l.62-.99c.44,.46,1.31,.88,2.13,.88s1.24-.3,1.24-.77c0-.55-.66-.74-1.43-.91-1.08-.23-2.37-.52-2.37-1.92,0-1.03,.88-1.91,2.47-1.91,1.07,0,1.87,.38,2.44,.88l-.57,.96c-.38-.43-1.08-.75-1.86-.75-.71,0-1.17,.26-1.17,.7,0,.48,.62,.65,1.36,.82,1.09,.23,2.43,.55,2.43,2.03,0,1.11-.92,1.95-2.61,1.95-1.07,0-2.04-.34-2.69-.98Zm-118.9,15.21h-1.36v-3.26c-.51,.68-1.22,1.03-2.02,1.03-1.62,0-2.78-1.24-2.78-3.3s1.16-3.29,2.78-3.29c.82,0,1.55,.39,2.02,1.01v-.86h1.36v8.67Zm-1.36-4.29v-2.48c-.3-.47-.98-.85-1.61-.85-1.08,0-1.77,.87-1.77,2.08s.69,2.09,1.77,2.09c.64,0,1.31-.39,1.61-.85Zm7.37,1.9v-.83c-.46,.51-1.24,.99-2.22,.99-1.35,0-2.02-.7-2.02-1.99v-4.45h1.36v3.95c0,.97,.49,1.27,1.26,1.27,.69,0,1.29-.39,1.61-.82v-4.41h1.36v6.28h-1.36Zm2.75-3.15c0-1.82,1.33-3.29,3.18-3.29s3.09,1.44,3.09,3.42v.33h-4.85c.1,.95,.82,1.73,2,1.73,.61,0,1.34-.25,1.78-.69l.62,.9c-.62,.6-1.55,.91-2.55,.91-1.89,0-3.29-1.31-3.29-3.3Zm3.18-2.17c-1.17,0-1.7,.9-1.77,1.66h3.54c-.03-.74-.53-1.66-1.77-1.66Zm12.03,5.32v-3.95c0-.98-.51-1.27-1.27-1.27-.69,0-1.29,.42-1.61,.85v4.38h-1.37v-8.67h1.37v3.25c.42-.49,1.23-1.01,2.22-1.01,1.35,0,2.03,.7,2.03,1.99v4.45h-1.36Zm6.97,0v-.68c-.47,.53-1.2,.83-2.03,.83-1.03,0-2.18-.69-2.18-2.08s1.16-2.04,2.18-2.04c.84,0,1.57,.27,2.03,.81v-.94c0-.73-.6-1.17-1.47-1.17-.7,0-1.31,.26-1.86,.79l-.56-.95c.73-.69,1.64-1.01,2.64-1.01,1.39,0,2.61,.58,2.61,2.27v4.16h-1.37Zm0-1.43v-.95c-.31-.43-.9-.65-1.49-.65-.77,0-1.34,.44-1.34,1.13s.57,1.12,1.34,1.12c.6,0,1.18-.22,1.49-.65Zm3.14,1.43v-8.67h1.36v3.26c.49-.66,1.22-1.03,2.02-1.03,1.61,0,2.78,1.27,2.78,3.3s-1.18,3.29-2.78,3.29c-.82,0-1.53-.39-2.02-1.01v.86h-1.36Zm1.36-1.88c.3,.47,.98,.83,1.61,.83,1.09,0,1.78-.86,1.78-2.08s-.69-2.09-1.78-2.09c-.64,0-1.31,.39-1.61,.86v2.48Zm6.86-5.43c-.46,0-.84-.38-.84-.85s.39-.85,.84-.85,.85,.38,.85,.85-.38,.85-.85,.85Zm-.68,7.32v-6.28h1.36v6.28h-1.36Zm5.02,.16c-1.05,0-1.61-.57-1.61-1.61v-3.63h-1.04v-1.2h1.04v-1.72h1.36v1.72h1.27v1.2h-1.27v3.29c0,.43,.21,.74,.6,.74,.26,0,.51-.1,.61-.22l.33,1.03c-.25,.23-.65,.4-1.29,.4Zm6.1-.16v-.68c-.47,.53-1.2,.83-2.03,.83-1.03,0-2.18-.69-2.18-2.08s1.16-2.04,2.18-2.04c.84,0,1.57,.27,2.03,.81v-.94c0-.73-.6-1.17-1.47-1.17-.7,0-1.31,.26-1.86,.79l-.56-.95c.73-.69,1.64-1.01,2.64-1.01,1.39,0,2.61,.58,2.61,2.27v4.16h-1.37Zm0-1.43v-.95c-.31-.43-.9-.65-1.49-.65-.77,0-1.34,.44-1.34,1.13s.57,1.12,1.34,1.12c.6,0,1.18-.22,1.49-.65Zm7.37,1.43v-3.93c0-.98-.49-1.3-1.26-1.3-.7,0-1.3,.42-1.61,.85v4.38h-1.36v-6.28h1.36v.86c.42-.49,1.22-1.01,2.21-1.01,1.35,0,2.03,.73,2.03,2.01v4.42h-1.36Zm6.48,0v-8.67h1.36v8.67h-1.36Zm6.97,0v-.68c-.47,.53-1.2,.83-2.03,.83-1.03,0-2.18-.69-2.18-2.08s1.16-2.04,2.18-2.04c.84,0,1.57,.27,2.03,.81v-.94c0-.73-.6-1.17-1.47-1.17-.7,0-1.31,.26-1.86,.79l-.56-.95c.73-.69,1.64-1.01,2.64-1.01,1.39,0,2.61,.58,2.61,2.27v4.16h-1.36Zm0-1.43v-.95c-.31-.43-.9-.65-1.49-.65-.77,0-1.34,.44-1.34,1.13s.57,1.12,1.34,1.12c.6,0,1.18-.22,1.49-.65Zm8.36,1.59c-1.05,0-1.61-.57-1.61-1.61v-3.63h-1.04v-1.2h1.04v-1.72h1.36v1.72h1.27v1.2h-1.27v3.29c0,.43,.21,.74,.6,.74,.26,0,.51-.1,.61-.22l.32,1.03c-.25,.23-.65,.4-1.29,.4Zm2.94-7.48c-.45,0-.84-.38-.84-.85s.39-.85,.84-.85,.85,.38,.85,.85-.38,.85-.85,.85Zm-.68,7.32v-6.28h1.36v6.28h-1.36Zm2.74-3.15c0-1.82,1.33-3.29,3.18-3.29s3.09,1.44,3.09,3.42v.33h-4.85c.1,.95,.82,1.73,2,1.73,.61,0,1.34-.25,1.78-.69l.62,.9c-.62,.6-1.55,.91-2.55,.91-1.89,0-3.29-1.31-3.29-3.3Zm3.18-2.17c-1.17,0-1.7,.9-1.77,1.66h3.54c-.03-.74-.53-1.66-1.77-1.66Zm4.44,5.32v-6.28h1.36v.92c.47-.6,1.22-1.07,2.04-1.07v1.35c-.12-.03-.26-.04-.43-.04-.57,0-1.34,.39-1.61,.83v4.28h-1.36Zm4.51,0v-6.28h1.36v.92c.47-.6,1.22-1.07,2.04-1.07v1.35c-.12-.03-.26-.04-.43-.04-.57,0-1.34,.39-1.61,.83v4.28h-1.36Zm8.34,0v-.68c-.47,.53-1.2,.83-2.03,.83-1.03,0-2.18-.69-2.18-2.08s1.16-2.04,2.18-2.04c.85,0,1.57,.27,2.03,.81v-.94c0-.73-.6-1.17-1.47-1.17-.7,0-1.31,.26-1.86,.79l-.56-.95c.73-.69,1.64-1.01,2.64-1.01,1.39,0,2.61,.58,2.61,2.27v4.16h-1.36Zm0-1.43v-.95c-.31-.43-.9-.65-1.49-.65-.77,0-1.34,.44-1.34,1.13s.57,1.12,1.34,1.12c.6,0,1.18-.22,1.49-.65Zm3.6,3.16l-.61-.51c.42-.25,.85-.78,.94-1.22-.04,.01-.14,.04-.22,.04-.44,0-.78-.34-.78-.82s.4-.9,.88-.9c.53,0,1.01,.43,1.01,1.18,0,.9-.51,1.72-1.22,2.22Zm-115.14,10.27l-2.56-6.28h1.46l1.83,4.71,1.83-4.71h1.47l-2.56,6.28h-1.47Zm5.56-7.32c-.46,0-.85-.38-.85-.85s.39-.85,.85-.85,.84,.38,.84,.85-.38,.85-.84,.85Zm-.68,7.32v-6.28h1.36v6.28h-1.36Zm4.79,0l-2.56-6.28h1.46l1.83,4.71,1.83-4.71h1.47l-2.56,6.28h-1.47Zm4.5-3.15c0-1.82,1.33-3.29,3.18-3.29s3.09,1.44,3.09,3.42v.33h-4.85c.1,.95,.82,1.73,2,1.73,.61,0,1.34-.25,1.78-.69l.62,.9c-.62,.6-1.55,.91-2.55,.91-1.89,0-3.29-1.31-3.29-3.3Zm3.18-2.17c-1.17,0-1.7,.9-1.77,1.66h3.54c-.03-.74-.53-1.66-1.77-1.66Zm8.68,5.32v-3.93c0-.98-.49-1.3-1.26-1.3-.7,0-1.3,.42-1.61,.85v4.38h-1.37v-6.28h1.37v.86c.42-.49,1.22-1.01,2.21-1.01,1.35,0,2.03,.73,2.03,2.01v4.42h-1.36Zm6.09-3.15c0-1.82,1.33-3.29,3.18-3.29s3.09,1.44,3.09,3.42v.33h-4.85c.1,.95,.82,1.73,2,1.73,.61,0,1.34-.25,1.78-.69l.62,.9c-.62,.6-1.55,.91-2.55,.91-1.89,0-3.29-1.31-3.29-3.3Zm3.18-2.17c-1.17,0-1.7,.9-1.77,1.66h3.54c-.03-.74-.53-1.66-1.77-1.66Zm8.68,5.32v-3.93c0-.98-.49-1.3-1.26-1.3-.7,0-1.3,.42-1.61,.85v4.38h-1.36v-6.28h1.36v.86c.42-.49,1.22-1.01,2.21-1.01,1.35,0,2.03,.73,2.03,2.01v4.42h-1.36Zm6.09-3.15c0-1.82,1.33-3.29,3.19-3.29s3.09,1.44,3.09,3.42v.33h-4.85c.1,.95,.82,1.73,2,1.73,.61,0,1.34-.25,1.78-.69l.62,.9c-.62,.6-1.55,.91-2.55,.91-1.88,0-3.29-1.31-3.29-3.3Zm3.19-2.17c-1.17,0-1.7,.9-1.77,1.66h3.54c-.03-.74-.53-1.66-1.77-1.66Zm4.44,5.32v-8.67h1.36v8.67h-1.36Zm9.31,.16c-1.99,0-3.22-1.5-3.22-3.3s1.24-3.29,3.22-3.29,3.24,1.49,3.24,3.29-1.22,3.3-3.24,3.3Zm0-1.21c1.17,0,1.82-.98,1.82-2.09s-.65-2.08-1.82-2.08-1.81,.97-1.81,2.08,.65,2.09,1.81,2.09Zm4.23-2.09c0-1.9,1.34-3.29,3.25-3.29,1.22,0,1.96,.52,2.41,1.12l-.9,.83c-.35-.49-.83-.74-1.44-.74-1.14,0-1.9,.86-1.9,2.08s.75,2.09,1.9,2.09c.61,0,1.09-.26,1.44-.74l.9,.83c-.44,.6-1.18,1.12-2.41,1.12-1.91,0-3.25-1.39-3.25-3.3Zm10.09-4.08h-.97l1.82-1.87h1.3l-2.15,1.87Zm-3.63,4.08c0-1.82,1.33-3.29,3.19-3.29s3.09,1.44,3.09,3.42v.33h-4.85c.1,.95,.82,1.73,2,1.73,.61,0,1.34-.25,1.78-.69l.62,.9c-.62,.6-1.55,.91-2.55,.91-1.88,0-3.29-1.31-3.29-3.3Zm3.19-2.17c-1.17,0-1.7,.9-1.77,1.66h3.54c-.03-.74-.53-1.66-1.77-1.66Zm8.28,5.32v-.68c-.47,.53-1.2,.83-2.03,.83-1.03,0-2.18-.69-2.18-2.08s1.16-2.04,2.18-2.04c.85,0,1.57,.27,2.03,.81v-.94c0-.73-.6-1.17-1.47-1.17-.7,0-1.31,.26-1.86,.79l-.56-.95c.73-.69,1.64-1.01,2.64-1.01,1.39,0,2.61,.58,2.61,2.27v4.16h-1.36Zm0-1.43v-.95c-.31-.43-.9-.65-1.49-.65-.77,0-1.34,.44-1.34,1.13s.57,1.12,1.34,1.12c.6,0,1.18-.22,1.49-.65Zm7.37,1.43v-3.93c0-.98-.49-1.3-1.26-1.3-.7,0-1.3,.42-1.61,.85v4.38h-1.36v-6.28h1.36v.86c.42-.49,1.22-1.01,2.21-1.01,1.35,0,2.03,.73,2.03,2.01v4.42h-1.36Zm5.97,.16c-1.99,0-3.22-1.5-3.22-3.3s1.23-3.29,3.22-3.29,3.24,1.49,3.24,3.29-1.22,3.3-3.24,3.3Zm0-1.21c1.17,0,1.82-.98,1.82-2.09s-.65-2.08-1.82-2.08-1.81,.97-1.81,2.08,.65,2.09,1.81,2.09Z"/>
      </g>
    </g>
  </g>
</svg>